<?xml version="1.0" encoding="UTF-8"?>
<svg id="Layer_2" data-name="Layer 2" xmlns="http://www.w3.org/2000/svg" width="852.35" height="486.36" xmlns:xlink="http://www.w3.org/1999/xlink" viewBox="0 0 852.35 486.36">
  <defs>
    <style>
      .cls-1 {
        fill: #f3bf6b;
      }

      .cls-2 {
        fill: #df9155;
      }

      .cls-3 {
        fill: #f1be63;
      }

      .cls-4 {
        fill: #db8e54;
      }

      .cls-5 {
        fill: #fcdd88;
      }

      .cls-6 {
        fill: #bf765e;
      }

      .cls-7 {
        fill: #f6cd76;
      }

      .cls-8 {
        fill: #f1b96d;
      }

      .cls-9 {
        fill: #c27d5b;
      }

      .cls-10 {
        fill: #c77e5d;
      }

      .cls-11 {
        fill: #f9cb78;
      }

      .cls-12 {
        fill: #f3c065;
      }

      .cls-13 {
        fill: #cb8660;
      }

      .cls-14 {
        fill: #edb05b;
      }

      .cls-15 {
        fill: #dca174;
      }

      .cls-16 {
        fill: #d5855a;
      }

      .cls-17 {
        fill: none;
      }

      .cls-18 {
        fill: #dca478;
      }

      .cls-19 {
        fill: #e7a857;
      }

      .cls-20 {
        fill: #ca805f;
      }

      .cls-21 {
        fill: #e8a259;
      }

      .cls-22 {
        fill: #c57c5c;
      }

      .cls-23 {
        fill: #ad6a5c;
      }

      .cls-24 {
        fill: url(#linear-gradient);
      }

      .cls-25 {
        fill: #c77f5e;
      }

      .cls-26 {
        fill: #d69372;
      }

      .cls-27 {
        fill: #dd9f6f;
      }

      .cls-28 {
        fill: #c98865;
      }
    </style>
    <linearGradient id="linear-gradient" x1="0" y1="56.88" x2="848.71" y2="56.88" gradientTransform="translate(0 118.2) scale(1 -1)" gradientUnits="userSpaceOnUse">
      <stop offset="0" stop-color="#72b153"/>
      <stop offset="1" stop-color="#a7d273"/>
    </linearGradient>
  </defs>
  <g id="Layer_1-2" data-name="Layer 1">
    <g id="floating-island3">
      <polygon id="dark-bg" class="cls-13" points="811.78 88.44 790.63 95.72 733.12 95.72 598.28 106.29 306.12 106.29 76.76 98.36 17.27 85.14 70.15 170.41 167.31 214.69 231.43 299.96 286.95 399.77 356.53 451.56 403.29 486.36 595.63 342.26 741.71 301.94 771.98 204.33 784.11 133.66 811.78 88.44"/>
      <polygon id="light-bg" class="cls-3" points="307.52 122.32 314.05 196.85 340.49 243.12 360.98 306.74 363.63 334.99 381.47 385.23 403.29 486.36 286.95 399.77 231.43 299.96 167.31 214.69 70.15 170.41 26.91 98.36 307.52 122.32"/>
      <g id="land">
        <polygon class="cls-21" points="340.49 243.12 231.43 299.96 360.98 306.74 340.49 243.12"/>
        <polygon class="cls-1" points="167.31 214.69 70.15 170.41 314.05 196.85 167.31 214.69"/>
        <polygon class="cls-5" points="76.76 98.36 115.76 175.35 70.15 170.41 17.27 85.14 76.76 98.36"/>
        <polygon class="cls-12" points="76.76 98.36 115.76 175.35 306.12 106.29 76.76 98.36"/>
        <polygon class="cls-14" points="306.12 106.29 314.05 196.85 115.76 175.35 306.12 106.29"/>
        <polygon class="cls-6" points="314.05 196.85 556.02 225.11 306.12 106.29 314.05 196.85"/>
        <polygon class="cls-10" points="306.12 106.29 598.28 106.29 601.58 221.3 556.02 225.11 306.12 106.29"/>
        <polygon class="cls-25" points="601.58 221.3 733.12 95.72 598.28 106.29 601.58 221.3"/>
        <polygon class="cls-22" points="601.58 221.3 728.49 237.17 733.12 95.72 601.58 221.3"/>
        <polygon class="cls-26" points="728.49 237.17 771.98 204.33 733.12 95.72 728.49 237.17"/>
        <polygon class="cls-18" points="784.68 132.73 790.63 95.72 811.78 88.44 784.68 132.73"/>
        <polygon class="cls-27" points="790.63 95.72 771.98 204.33 733.12 95.72 790.63 95.72"/>
        <polygon class="cls-15" points="728.49 237.17 741.71 301.94 771.98 204.33 728.49 237.17"/>
        <polygon class="cls-13" points="728.49 237.17 659.75 316.49 556.02 285.75 601.58 221.3 728.49 237.17"/>
        <polygon class="cls-28" points="728.49 237.17 659.75 316.49 741.71 301.94 728.49 237.17"/>
        <polygon class="cls-23" points="741.71 301.94 659.75 316.49 510.37 327.72 595.63 342.26 741.71 301.94"/>
        <polygon class="cls-17" points="510.37 327.72 556.02 285.75 659.75 316.49 510.37 327.72"/>
        <polygon class="cls-3" points="314.05 196.85 340.49 243.12 191.65 211.74 314.05 196.85"/>
        <polygon class="cls-11" points="167.31 214.69 231.43 299.96 191.62 211.74 167.31 214.69"/>
        <polygon class="cls-2" points="231.43 299.96 360.98 306.74 363.63 334.99 314.05 385.23 289.6 385.23 231.43 299.96"/>
        <polygon class="cls-8" points="289.6 385.23 356.52 451.56 286.95 399.77 289.6 385.23"/>
        <polygon class="cls-7" points="286.95 399.77 289.6 385.23 231.43 299.96 286.95 399.77"/>
        <polygon class="cls-4" points="314.05 385.23 381.47 385.23 363.63 334.99 314.05 385.23"/>
        <polygon class="cls-19" points="340.49 243.12 191.62 211.74 231.43 299.96 340.49 243.12"/>
        <polygon class="cls-6" points="381.47 385.23 510.37 327.72 360.98 306.74 363.63 334.99 381.47 385.23"/>
        <polygon class="cls-16" points="289.6 385.23 474.67 385.23 403.29 486.36 356.52 451.56 289.6 385.23"/>
        <polygon class="cls-9" points="474.67 385.23 510.37 327.72 381.47 385.23 474.67 385.23"/>
        <polygon class="cls-6" points="510.37 327.72 595.63 342.26 403.29 486.36 474.67 385.23 510.37 327.72"/>
        <polygon class="cls-9" points="340.49 243.12 314.05 196.85 556.02 225.11 340.49 243.12"/>
        <polygon class="cls-20" points="340.49 243.12 556.02 285.75 601.58 221.3 340.49 243.12"/>
        <polygon class="cls-13" points="340.49 243.12 360.98 306.74 510.37 327.72 556.02 285.75 340.49 243.12"/>
        <polygon class="cls-6" points="556.02 285.75 510.37 327.72 659.75 316.49 556.02 285.75"/>
      </g>
      <g id="ground">
        <path class="cls-6" d="m848.89,85l-2-2.29,1.84,6-25.46,12.15s-200.27,12.14-200.12,19.14-261-2.14-261-2.14l-187.93-10.41-94.3-3.6-61.92-15.18L0,80.47v7.53l18.06,8.2,62.21,15.18,94.73,3.62,188.7,10.45s262.34,9.22,262.16,2.14,200.95-19.22,200.95-19.22l25.54-12.17-3.46-11.2Z"/>
        <path class="cls-24" d="m18,88.67L0,80.47v-25.81l18-12.15,55-16.7h74.25l76.52-16.09h103.23L419.92,0h141.7l210.69,21.26,31.51,15.18,27.34,24.9,14.11,16.09,3.44,11.24-25.46,12.15s-200.25,12.18-200.1,19.18-261-2.14-261-2.14l-187.93-10.41-94.3-3.6-61.92-15.18Z"/>
      </g>
    </g>
  </g>
</svg>