<?xml version="1.0" encoding="UTF-8"?>
<svg id="Layer_2" data-name="Layer 2" xmlns="http://www.w3.org/2000/svg" width="378.09" height="475.13" viewBox="0 0 378.09 475.13">
  <defs>
    <style>
      .cls-1 {
        fill: #0f341d;
      }

      .cls-2 {
        fill: #034c27;
      }

      .cls-3 {
        fill: #4e3316;
      }

      .cls-4 {
        fill: #3b9144;
      }

      .cls-5 {
        fill: #2c823f;
      }

      .cls-6 {
        fill: #0e4522;
      }

      .cls-7 {
        fill: #7cae42;
      }

      .cls-8 {
        fill: #0d351e;
      }

      .cls-9 {
        fill: #2b8b43;
      }

      .cls-10 {
        fill: #454b20;
      }

      .cls-11 {
        fill: #1e2216;
      }

      .cls-12 {
        fill: #0d351d;
      }

      .cls-13 {
        fill: #419f47;
      }

      .cls-14 {
        fill: #4f481e;
      }

      .cls-15 {
        fill: #80af41;
      }

      .cls-16 {
        fill: #044c26;
      }

      .cls-17 {
        fill: #03572d;
      }

      .cls-18 {
        fill: #68471b;
      }

      .cls-19 {
        fill: #4b4018;
      }

      .cls-20 {
        fill: #036635;
      }

      .cls-21 {
        fill: #0c4422;
      }

      .cls-22 {
        fill: #81c241;
      }

      .cls-23 {
        fill: #b7d774;
      }

      .cls-24 {
        fill: #05522a;
      }

      .cls-25 {
        fill: #1a8140;
      }

      .cls-26 {
        fill: #66451a;
      }

      .cls-27 {
        fill: #0d4221;
      }

      .cls-28 {
        fill: #0a4a26;
      }

      .cls-29 {
        fill: #c8db6a;
      }

      .cls-30 {
        fill: #066d3b;
      }

      .cls-31 {
        fill: #017941;
      }

      .cls-32 {
        fill: #057b3f;
      }

      .cls-33 {
        fill: #acd267;
      }

      .cls-34 {
        fill: #035c30;
      }

      .cls-35 {
        fill: #372f16;
      }

      .cls-36 {
        fill: #066234;
      }

      .cls-37 {
        fill: #abcd59;
      }

      .cls-38 {
        fill: #0f1d15;
      }

      .cls-39 {
        fill: #352f16;
      }

      .cls-40 {
        fill: #2b9446;
      }

      .cls-41 {
        fill: #12ae4b;
      }

      .cls-42 {
        fill: #0d8943;
      }

      .cls-43 {
        fill: #6fb744;
      }

      .cls-44 {
        fill: #a8d168;
      }

      .cls-45 {
        fill: #add365;
      }

      .cls-46 {
        fill: #35b34a;
      }

      .cls-47 {
        fill: #035a2f;
      }

      .cls-48 {
        fill: #358a42;
      }

      .cls-49 {
        fill: #048342;
      }

      .cls-50 {
        fill: #2d8641;
      }

      .cls-51 {
        fill: #64b346;
      }

      .cls-52 {
        fill: #0f4623;
      }

      .cls-53 {
        fill: #c2822b;
      }

      .cls-54 {
        fill: #0b4321;
      }

      .cls-55 {
        fill: #b8d774;
      }

      .cls-56 {
        fill: #0d361e;
      }

      .cls-57 {
        fill: #d88f2a;
      }

      .cls-58 {
        fill: #84bd42;
      }

      .cls-59 {
        fill: #123c20;
      }

      .cls-60 {
        fill: #122e1c;
      }

      .cls-61 {
        fill: #010101;
        opacity: .1;
      }

      .cls-62 {
        fill: #0e3e20;
      }

      .cls-63 {
        fill: #81bc41;
      }

      .cls-64 {
        fill: #7aaf42;
      }

      .cls-65 {
        fill: #10391f;
      }

      .cls-66 {
        fill: #132c1b;
      }

      .cls-67 {
        fill: #c2802a;
      }

      .cls-68 {
        fill: #0c7a3e;
      }

      .cls-69 {
        fill: #3b361a;
      }

      .cls-70 {
        fill: #85b941;
      }

      .cls-71 {
        fill: #0e4b25;
      }

      .cls-72 {
        fill: #103c20;
      }

      .cls-73 {
        fill: #10a74a;
      }

      .cls-74 {
        fill: #11301d;
      }

      .cls-75 {
        fill: #036334;
      }

      .cls-76 {
        fill: #2c8140;
      }

      .cls-77 {
        fill: #142f1c;
      }

      .cls-78 {
        fill: #0fad4b;
      }

      .cls-79 {
        fill: #0f321c;
      }

      .cls-80 {
        fill: #09703b;
      }

      .cls-81 {
        fill: #359946;
      }

      .cls-82 {
        fill: #03592d;
      }

      .cls-83 {
        fill: #104221;
      }

      .cls-84 {
        fill: #3d3918;
      }

      .cls-85 {
        fill: #69b345;
      }

      .cls-86 {
        fill: #52461d;
      }

      .cls-87 {
        fill: #d48029;
      }

      .cls-88 {
        fill: #102719;
      }

      .cls-89 {
        fill: #d27f28;
      }

      .cls-90 {
        fill: #026534;
      }

      .cls-91 {
        fill: #0f8040;
      }

      .cls-92 {
        fill: #a8d16c;
      }

      .cls-93 {
        fill: #0f4120;
      }

      .cls-94 {
        fill: #076132;
      }

      .cls-95 {
        fill: #035b30;
      }

      .cls-96 {
        fill: #025e32;
      }

      .cls-97 {
        fill: #a3ce59;
      }

      .cls-98 {
        fill: #e5e78d;
      }

      .cls-99 {
        fill: #138140;
      }

      .cls-100 {
        fill: #453517;
      }

      .cls-101 {
        fill: #84ba41;
      }

      .cls-102 {
        fill: #64a744;
      }

      .cls-103 {
        fill: #78b243;
      }

      .cls-104 {
        fill: #066f3a;
      }

      .cls-105 {
        fill: #05763e;
      }

      .cls-106 {
        fill: #123b1f;
      }

      .cls-107 {
        fill: #b4d673;
      }

      .cls-108 {
        fill: #016837;
      }

      .cls-109 {
        fill: #258441;
      }

      .cls-110 {
        fill: #10381f;
      }

      .cls-111 {
        fill: #017d42;
      }

      .cls-112 {
        fill: #38361a;
      }

      .cls-113 {
        fill: #337f3e;
      }

      .cls-114 {
        fill: #0caa4b;
      }

      .cls-115 {
        fill: #b5d570;
      }

      .cls-116 {
        fill: #493919;
      }

      .cls-117 {
        fill: #0e4020;
      }

      .cls-118 {
        fill: #4e3a18;
      }

      .cls-119 {
        fill: #77b443;
      }

      .cls-120 {
        fill: #113a20;
      }

      .cls-121 {
        fill: #cc7e29;
      }

      .cls-122 {
        fill: #288743;
      }

      .cls-123 {
        fill: #08723b;
      }

      .cls-124 {
        fill: #7bae42;
      }

      .cls-125 {
        fill: #084b25;
      }

      .cls-126 {
        fill: #046b38;
      }

      .cls-127 {
        fill: #036032;
      }

      .cls-128 {
        fill: #035d31;
      }

      .cls-129 {
        fill: #05532a;
      }

      .cls-130 {
        fill: #0f391f;
      }

      .cls-131 {
        fill: #a8d063;
      }

      .cls-132 {
        fill: #e49934;
      }

      .cls-133 {
        fill: #035f32;
      }

      .cls-134 {
        fill: #6fb444;
      }

      .cls-135 {
        fill: #67b445;
      }

      .cls-136 {
        fill: #0e4f28;
      }

      .cls-137 {
        fill: #0a4b25;
      }

      .cls-138 {
        fill: #076d39;
      }

      .cls-139 {
        fill: #0a4422;
      }

      .cls-140 {
        fill: #db7928;
      }

      .cls-141 {
        fill: #b2d56a;
      }

      .cls-142 {
        fill: #158342;
      }

      .cls-143 {
        fill: #137d3f;
      }

      .cls-144 {
        fill: #057f41;
      }

      .cls-145 {
        fill: #319947;
      }

      .cls-146 {
        fill: #045029;
      }

      .cls-147 {
        fill: #03562c;
      }

      .cls-148 {
        fill: #3eb449;
      }

      .cls-149 {
        fill: #0f3b20;
      }

      .cls-150 {
        fill: #634119;
      }

      .cls-151 {
        fill: #2c8942;
      }

      .cls-152 {
        fill: #112b1a;
      }

      .cls-153 {
        fill: #ca7f2a;
      }

      .cls-154 {
        fill: #11311d;
      }

      .cls-155 {
        fill: #433117;
      }

      .cls-156 {
        fill: #05532b;
      }

      .cls-157 {
        fill: #328e43;
      }

      .cls-158 {
        fill: #be7d2a;
      }

      .cls-159 {
        fill: #2c2414;
      }

      .cls-160 {
        fill: #db7e28;
      }

      .cls-161 {
        fill: #805321;
      }

      .cls-162 {
        fill: #0e4322;
      }

      .cls-163 {
        fill: #a8d161;
      }

      .cls-164 {
        fill: #07743e;
      }

      .cls-165 {
        fill: #035e31;
      }

      .cls-166 {
        fill: #1f8240;
      }

      .cls-167 {
        fill: #7d3f1c;
      }

      .cls-168 {
        fill: #a9d05f;
      }

      .cls-169 {
        fill: #83bc41;
      }

      .cls-170 {
        fill: #add36c;
      }

      .cls-171 {
        fill: #018241;
      }

      .cls-172 {
        fill: #066133;
      }

      .cls-173 {
        fill: #3f3518;
      }

      .cls-174 {
        fill: #22311b;
      }

      .cls-175 {
        fill: #82b941;
      }

      .cls-176 {
        fill: #0b4523;
      }

      .cls-177 {
        fill: #a6d05b;
      }

      .cls-178 {
        fill: #d67c27;
      }

      .cls-179 {
        fill: #8dc240;
      }

      .cls-180 {
        fill: #0d371f;
      }

      .cls-181 {
        fill: #2a8842;
      }

      .cls-182 {
        fill: #493d18;
      }

      .cls-183 {
        fill: #103d20;
      }

      .cls-184 {
        fill: #03793e;
      }

      .cls-185 {
        fill: #d88e29;
      }

      .cls-186 {
        fill: #9fcc54;
      }

      .cls-187 {
        fill: #046a37;
      }

      .cls-188 {
        fill: #0e4523;
      }

      .cls-189 {
        fill: #b2d56c;
      }
    </style>
  </defs>
  <g id="Layer_1-2" data-name="Layer 1">
    <g>
      <path class="cls-61" d="m177.34,446.24c-1.74,1.78-16.39,14.07-16.39,14.07l12.88,14.81h35.12l50.48-3.56,38.19-16.89,11.41-18.37-12.88-13.46-23.68-5.95-39.33,9.78-35.9,9.63-19.9,9.92Z"/>
      <g>
        <polygon class="cls-107" points="21.07 97.16 0 161.54 22.83 156.85 21.07 97.16"/>
        <polygon class="cls-177" points="22.83 156.85 0 161.54 35.12 204.85 22.83 156.85"/>
        <polygon class="cls-4" points="22.83 156.85 35.12 204.85 49.16 204.85 22.83 156.85"/>
        <polygon class="cls-55" points="49.75 210.7 40.38 248.74 61.45 237.62 49.75 210.7"/>
        <polygon class="cls-115" points="21.07 97.16 22.83 156.85 63.79 113.54 21.07 97.16"/>
        <polygon class="cls-141" points="61.45 237.62 40.38 248.74 72.57 256.35 61.45 237.62"/>
        <polygon class="cls-23" points="63.79 113.54 22.83 156.85 74.33 122.32 63.79 113.54"/>
        <polygon class="cls-124" points="61.45 237.62 72.57 256.35 84.28 227.09 61.45 237.62"/>
        <polygon class="cls-124" points="49.75 210.7 61.45 237.62 84.28 227.09 49.75 210.7"/>
        <polygon class="cls-37" points="72.57 256.35 40.38 248.74 87.21 300.83 72.57 256.35"/>
        <polygon class="cls-95" points="49.16 204.85 49.75 210.7 89.55 206.02 49.16 204.85"/>
        <polygon class="cls-128" points="49.75 210.7 84.28 227.09 89.55 206.02 49.75 210.7"/>
        <polygon class="cls-189" points="21.07 97.16 63.79 113.54 91.89 40.97 21.07 97.16"/>
        <polygon class="cls-5" points="49.16 204.85 89.55 206.02 91.89 176.75 49.16 204.85"/>
        <polygon class="cls-109" points="22.83 156.85 49.16 204.85 91.89 176.75 22.83 156.85"/>
        <polygon class="cls-7" points="74.33 122.32 22.83 156.85 91.89 176.75 74.33 122.32"/>
        <polygon class="cls-64" points="74.33 122.32 91.89 176.75 102.42 162.71 74.33 122.32"/>
        <polygon class="cls-181" points="74.33 122.32 102.42 162.71 108.28 138.12 74.33 122.32"/>
        <polygon class="cls-96" points="89.55 206.02 84.28 227.09 108.28 239.38 89.55 206.02"/>
        <polygon class="cls-15" points="84.28 227.09 72.57 256.35 108.28 239.38 84.28 227.09"/>
        <polygon class="cls-157" points="72.57 256.35 87.21 300.83 113.54 293.81 72.57 256.35"/>
        <polygon class="cls-109" points="108.28 239.38 72.57 256.35 113.54 293.81 108.28 239.38"/>
        <polygon class="cls-166" points="91.89 176.75 89.55 206.02 114.13 178.51 91.89 176.75"/>
        <polygon class="cls-102" points="102.42 162.71 91.89 176.75 114.13 178.51 102.42 162.71"/>
        <polygon class="cls-122" points="108.28 138.12 102.42 162.71 116.47 169.73 108.28 138.12"/>
        <polygon class="cls-48" points="102.42 162.71 114.13 178.51 116.47 169.73 102.42 162.71"/>
        <polygon class="cls-127" points="89.55 206.02 108.28 239.38 118.81 206.02 89.55 206.02"/>
        <polygon class="cls-143" points="114.13 178.51 89.55 206.02 118.81 206.02 114.13 178.51"/>
        <polygon class="cls-132" points="113.54 312.83 113.54 317.51 118.81 315.17 113.54 312.83"/>
        <polygon class="cls-50" points="116.47 169.73 114.13 178.51 121.74 186.12 116.47 169.73"/>
        <polygon class="cls-126" points="114.13 178.51 118.81 206.02 121.74 186.12 114.13 178.51"/>
        <polygon class="cls-143" points="121.74 186.12 118.81 206.02 125.25 194.31 121.74 186.12"/>
        <polygon class="cls-101" points="63.79 113.54 74.33 122.32 125.83 64.38 63.79 113.54"/>
        <polygon class="cls-33" points="91.89 40.97 63.79 113.54 125.83 64.38 91.89 40.97"/>
        <polygon class="cls-138" points="74.33 122.32 108.28 138.12 127.59 117.05 74.33 122.32"/>
        <polygon class="cls-70" points="125.83 64.38 74.33 122.32 127.59 117.05 125.83 64.38"/>
        <polygon class="cls-82" points="108.28 239.38 113.54 293.81 129.35 263.37 108.28 239.38"/>
        <polygon class="cls-133" points="127.59 117.05 108.28 138.12 132.86 125.83 127.59 117.05"/>
        <polygon class="cls-185" points="118.81 315.17 113.54 317.51 133.44 333.9 118.81 315.17"/>
        <polygon class="cls-9" points="129.35 263.37 113.54 293.81 138.71 289.42 129.35 263.37"/>
        <polygon class="cls-18" points="118.81 315.17 133.44 333.9 139.3 329.22 118.81 315.17"/>
        <polygon class="cls-94" points="116.47 169.73 121.74 186.12 139.88 189.63 116.47 169.73"/>
        <polygon class="cls-90" points="121.74 186.12 125.25 194.31 139.88 189.63 121.74 186.12"/>
        <polygon class="cls-25" points="125.25 194.31 118.81 206.02 139.88 208.36 125.25 194.31"/>
        <polygon class="cls-36" points="139.88 189.63 125.25 194.31 139.88 208.36 139.88 189.63"/>
        <polygon class="cls-75" points="118.81 206.02 108.28 239.38 139.88 208.36 118.81 206.02"/>
        <polygon class="cls-170" points="91.89 40.97 125.83 64.38 140.47 39.21 91.89 40.97"/>
        <polygon class="cls-172" points="116.47 169.73 139.88 189.63 142.22 141.64 116.47 169.73"/>
        <polygon class="cls-165" points="108.28 138.12 116.47 169.73 142.22 141.64 108.28 138.12"/>
        <polygon class="cls-172" points="132.86 125.83 108.28 138.12 142.22 141.64 132.86 125.83"/>
        <polygon class="cls-134" points="132.86 125.83 142.22 141.64 143.39 118.23 132.86 125.83"/>
        <polygon class="cls-184" points="127.59 117.05 132.86 125.83 143.39 118.23 127.59 117.05"/>
        <polygon class="cls-56" points="108.28 239.38 129.35 263.37 145.73 249.91 108.28 239.38"/>
        <polygon class="cls-136" points="139.88 208.36 108.28 239.38 145.73 249.91 139.88 208.36"/>
        <polygon class="cls-17" points="129.35 263.37 138.71 289.42 146.32 287.66 129.35 263.37"/>
        <polygon class="cls-174" points="146.32 287.66 138.71 289.42 148.66 312.83 146.32 287.66"/>
        <polygon class="cls-155" points="139.3 329.22 133.44 333.9 151 342.09 139.3 329.22"/>
        <polygon class="cls-156" points="139.88 189.63 139.88 208.36 157.44 196.65 139.88 189.63"/>
        <polygon class="cls-156" points="142.22 141.64 139.88 189.63 157.44 196.65 142.22 141.64"/>
        <polygon class="cls-65" points="145.73 249.91 129.35 263.37 158.02 267.18 145.73 249.91"/>
        <polygon class="cls-76" points="129.35 263.37 146.32 287.66 158.02 267.18 129.35 263.37"/>
        <polygon class="cls-183" points="139.88 208.36 145.73 249.91 158.61 235.28 139.88 208.36"/>
        <polygon class="cls-33" points="140.47 39.21 125.83 64.38 159.19 46.82 140.47 39.21"/>
        <polygon class="cls-118" points="151 342.09 133.44 333.9 159.19 364.92 151 342.09"/>
        <polygon class="cls-103" points="143.39 118.23 142.22 141.64 159.78 123.49 143.39 118.23"/>
        <polygon class="cls-173" points="148.66 312.83 155.68 326.88 160.37 318.68 148.66 312.83"/>
        <polygon class="cls-19" points="146.32 287.66 148.66 312.83 160.37 318.68 146.32 287.66"/>
        <polygon class="cls-147" points="157.44 196.65 139.88 208.36 160.95 206.02 157.44 196.65"/>
        <polygon class="cls-136" points="139.88 208.36 158.61 235.28 160.95 206.02 139.88 208.36"/>
        <polygon class="cls-97" points="143.39 118.23 159.78 123.49 163.29 100.67 143.39 118.23"/>
        <polygon class="cls-179" points="159.19 46.82 125.83 64.38 163.29 100.67 159.19 46.82"/>
        <polygon class="cls-124" points="125.83 64.38 127.59 117.05 163.29 100.67 125.83 64.38"/>
        <polygon class="cls-68" points="127.59 117.05 143.39 118.23 163.29 100.67 127.59 117.05"/>
        <polygon class="cls-167" points="151 342.09 159.19 364.92 167.39 352.63 151 342.09"/>
        <polygon class="cls-59" points="145.73 249.91 158.02 267.18 168.56 246.99 145.73 249.91"/>
        <polygon class="cls-117" points="158.61 235.28 145.73 249.91 168.56 246.99 158.61 235.28"/>
        <polygon class="cls-3" points="159.78 336.24 167.39 352.63 168.56 334.48 159.78 336.24"/>
        <polygon class="cls-116" points="155.68 326.88 159.78 336.24 168.56 334.48 155.68 326.88"/>
        <polygon class="cls-182" points="160.37 318.68 155.68 326.88 168.56 334.48 160.37 318.68"/>
        <polygon class="cls-147" points="160.95 206.02 158.61 235.28 180.85 236.74 160.95 206.02"/>
        <polygon class="cls-147" points="158.61 235.28 168.56 246.99 180.85 236.74 158.61 235.28"/>
        <polygon class="cls-11" points="167.39 352.63 159.19 364.92 183.78 380.14 167.39 352.63"/>
        <polygon class="cls-100" points="168.56 334.48 167.39 352.63 184.95 351.46 168.56 334.48"/>
        <polygon class="cls-35" points="167.39 352.63 183.78 380.14 184.95 351.46 167.39 352.63"/>
        <polygon class="cls-22" points="159.19 46.82 163.29 100.67 185.53 86.04 159.19 46.82"/>
        <polygon class="cls-168" points="163.29 100.67 159.78 123.49 189.04 117.64 163.29 100.67"/>
        <polygon class="cls-45" points="185.53 86.04 163.29 100.67 189.04 117.64 185.53 86.04"/>
        <polygon class="cls-113" points="158.02 267.18 146.32 287.66 189.63 277.42 158.02 267.18"/>
        <polygon class="cls-183" points="168.56 246.99 158.02 267.18 189.63 277.42 168.56 246.99"/>
        <polygon class="cls-34" points="180.85 236.74 168.56 246.99 191.38 251.67 180.85 236.74"/>
        <polygon class="cls-36" points="168.56 246.99 189.63 277.42 191.38 251.67 168.56 246.99"/>
        <polygon class="cls-71" points="180.85 236.74 191.38 251.67 193.73 229.72 180.85 236.74"/>
        <polygon class="cls-83" points="160.95 206.02 180.85 236.74 193.73 229.72 160.95 206.02"/>
        <polygon class="cls-92" points="159.19 46.82 185.53 86.04 196.65 70.23 159.19 46.82"/>
        <polygon class="cls-160" points="186.12 307.56 186.12 327.46 197.24 316.34 186.12 307.56"/>
        <polygon class="cls-158" points="189.63 277.42 186.12 307.56 197.82 289.42 189.63 277.42"/>
        <polygon class="cls-87" points="186.12 307.56 197.24 316.34 197.82 303.46 186.12 307.56"/>
        <polygon class="cls-89" points="197.82 289.42 186.12 307.56 197.82 303.46 197.82 289.42"/>
        <polygon class="cls-67" points="186.12 327.46 184.95 351.46 197.82 334.48 186.12 327.46"/>
        <polygon class="cls-153" points="197.24 316.34 186.12 327.46 197.82 334.48 197.24 316.34"/>
        <polygon class="cls-120" points="157.44 196.65 160.95 206.02 198.99 184.95 157.44 196.65"/>
        <polygon class="cls-137" points="160.95 206.02 193.73 229.72 198.99 184.95 160.95 206.02"/>
        <polygon class="cls-9" points="189.04 117.64 159.78 123.49 198.99 184.95 189.04 117.64"/>
        <polygon class="cls-59" points="142.22 141.64 157.44 196.65 198.99 184.95 142.22 141.64"/>
        <polygon class="cls-151" points="159.78 123.49 142.22 141.64 198.99 184.95 159.78 123.49"/>
        <polygon class="cls-121" points="197.82 334.48 184.95 351.46 198.99 358.48 197.82 334.48"/>
        <polygon class="cls-178" points="184.95 351.46 183.78 380.14 198.99 358.48 184.95 351.46"/>
        <polygon class="cls-140" points="183.78 380.14 197.82 390.08 198.99 358.48 183.78 380.14"/>
        <polygon class="cls-53" points="183.78 380.14 180.26 459.15 200.16 422.86 183.78 380.14"/>
        <polygon class="cls-161" points="197.82 390.08 183.78 380.14 200.16 422.86 197.82 390.08"/>
        <polygon class="cls-57" points="200.16 422.86 180.26 459.15 201.33 459.73 200.16 422.86"/>
        <polygon class="cls-44" points="140.47 39.21 159.19 46.82 204.26 0 140.47 39.21"/>
        <polygon class="cls-149" points="198.99 184.95 193.73 229.72 205.43 222.11 198.99 184.95"/>
        <polygon class="cls-86" points="197.82 334.48 198.99 358.48 207.19 340.34 197.82 334.48"/>
        <polygon class="cls-112" points="197.82 289.42 197.82 303.46 208.36 285.91 197.82 289.42"/>
        <polygon class="cls-159" points="189.63 277.42 197.82 289.42 208.36 285.91 189.63 277.42"/>
        <polygon class="cls-106" points="193.73 229.72 191.38 251.67 208.94 247.57 193.73 229.72"/>
        <polygon class="cls-183" points="205.43 222.11 193.73 229.72 208.94 247.57 205.43 222.11"/>
        <polygon class="cls-69" points="197.82 303.46 197.24 316.34 210.7 309.32 197.82 303.46"/>
        <polygon class="cls-84" points="208.36 285.91 197.82 303.46 210.7 309.32 208.36 285.91"/>
        <polygon class="cls-188" points="191.38 251.67 189.63 277.42 213.62 264.84 191.38 251.67"/>
        <polygon class="cls-176" points="208.94 247.57 191.38 251.67 213.62 264.84 208.94 247.57"/>
        <polygon class="cls-39" points="189.63 277.42 208.36 285.91 215.09 276.54 189.63 277.42"/>
        <polygon class="cls-2" points="213.62 264.84 189.63 277.42 215.09 276.54 213.62 264.84"/>
        <polygon class="cls-26" points="197.82 390.08 200.16 422.86 218.89 412.33 197.82 390.08"/>
        <polygon class="cls-18" points="198.99 358.48 197.82 390.08 218.89 412.33 198.99 358.48"/>
        <polygon class="cls-186" points="159.19 46.82 196.65 70.23 219.48 55.02 159.19 46.82"/>
        <polygon class="cls-131" points="204.26 0 159.19 46.82 219.48 55.02 204.26 0"/>
        <polygon class="cls-105" points="208.94 247.57 213.62 264.84 220.06 254.89 208.94 247.57"/>
        <polygon class="cls-79" points="205.43 222.11 208.94 247.57 222.4 227.09 205.43 222.11"/>
        <polygon class="cls-165" points="189.04 117.64 198.99 184.95 224.16 158.02 189.04 117.64"/>
        <polygon class="cls-77" points="207.19 340.34 198.99 358.48 224.16 330.97 207.19 340.34"/>
        <polygon class="cls-180" points="198.99 358.48 218.89 412.33 224.16 330.97 198.99 358.48"/>
        <polygon class="cls-38" points="210.7 309.32 197.24 316.34 224.16 330.97 210.7 309.32"/>
        <polygon class="cls-14" points="197.24 316.34 197.82 334.48 224.16 330.97 197.24 316.34"/>
        <polygon class="cls-66" points="197.82 334.48 207.19 340.34 224.16 330.97 197.82 334.48"/>
        <polygon class="cls-150" points="200.16 422.86 201.33 459.73 224.16 460.32 200.16 422.86"/>
        <polygon class="cls-10" points="218.89 412.33 200.16 422.86 224.16 460.32 218.89 412.33"/>
        <polygon class="cls-72" points="213.62 264.84 215.09 276.54 225.92 267.18 213.62 264.84"/>
        <polygon class="cls-120" points="220.06 254.89 213.62 264.84 225.92 267.18 220.06 254.89"/>
        <polygon class="cls-119" points="185.53 86.04 189.04 117.64 228.26 93.94 185.53 86.04"/>
        <polygon class="cls-99" points="196.65 70.23 185.53 86.04 228.26 93.94 196.65 70.23"/>
        <polygon class="cls-172" points="189.04 117.64 224.16 158.02 229.43 113.25 189.04 117.64"/>
        <polygon class="cls-134" points="228.26 93.94 189.04 117.64 229.43 113.25 228.26 93.94"/>
        <polygon class="cls-80" points="208.94 247.57 220.06 254.89 232.06 234.99 208.94 247.57"/>
        <polygon class="cls-80" points="222.4 227.09 208.94 247.57 232.06 234.99 222.4 227.09"/>
        <polygon class="cls-47" points="224.16 158.02 198.99 184.95 234.11 173.83 224.16 158.02"/>
        <polygon class="cls-175" points="219.48 55.02 196.65 70.23 237.04 81.94 219.48 55.02"/>
        <polygon class="cls-91" points="196.65 70.23 228.26 93.94 237.04 81.94 196.65 70.23"/>
        <polygon class="cls-79" points="234.11 173.83 198.99 184.95 237.62 206.6 234.11 173.83"/>
        <polygon class="cls-123" points="222.4 227.09 232.06 234.99 237.62 206.6 222.4 227.09"/>
        <polygon class="cls-154" points="198.99 184.95 205.43 222.11 237.62 206.6 198.99 184.95"/>
        <polygon class="cls-74" points="205.43 222.11 222.4 227.09 237.62 206.6 205.43 222.11"/>
        <polygon class="cls-146" points="210.7 309.32 224.16 330.97 237.62 290.59 210.7 309.32"/>
        <polygon class="cls-83" points="220.06 254.89 225.92 267.18 244.64 241.72 220.06 254.89"/>
        <polygon class="cls-93" points="232.06 234.99 220.06 254.89 244.64 241.72 232.06 234.99"/>
        <polygon class="cls-184" points="237.62 206.6 232.06 234.99 250.5 210.7 237.62 206.6"/>
        <polygon class="cls-162" points="232.06 234.99 244.64 241.72 250.5 210.7 232.06 234.99"/>
        <polygon class="cls-94" points="229.43 113.25 224.16 158.02 251.67 138.12 229.43 113.25"/>
        <polygon class="cls-146" points="224.16 158.02 234.11 173.83 251.67 138.12 224.16 158.02"/>
        <polygon class="cls-60" points="234.11 173.83 237.62 206.6 251.67 186.7 234.11 173.83"/>
        <polygon class="cls-13" points="237.62 206.6 250.5 210.7 251.67 186.7 237.62 206.6"/>
        <polygon class="cls-1" points="244.64 241.72 225.92 267.18 251.67 263.08 244.64 241.72"/>
        <polygon class="cls-16" points="251.67 263.08 225.92 267.18 254.59 278.3 251.67 263.08"/>
        <polygon class="cls-139" points="237.62 290.59 224.16 330.97 256.94 296.44 237.62 290.59"/>
        <polygon class="cls-8" points="254.59 278.3 237.62 290.59 256.94 296.44 254.59 278.3"/>
        <polygon class="cls-137" points="251.67 138.12 234.11 173.83 263.96 159.78 251.67 138.12"/>
        <polygon class="cls-1" points="234.11 173.83 251.67 186.7 263.96 159.78 234.11 173.83"/>
        <polygon class="cls-20" points="229.43 113.25 251.67 138.12 265.13 108.28 229.43 113.25"/>
        <polygon class="cls-85" points="228.26 93.94 229.43 113.25 265.13 108.28 228.26 93.94"/>
        <polygon class="cls-171" points="237.04 81.94 228.26 93.94 265.13 108.28 237.04 81.94"/>
        <polygon class="cls-142" points="237.04 81.94 265.13 108.28 270.4 93.06 237.04 81.94"/>
        <polygon class="cls-130" points="254.59 278.3 256.94 296.44 270.4 280.05 254.59 278.3"/>
        <polygon class="cls-52" points="251.67 138.12 263.96 159.78 272.74 123.49 251.67 138.12"/>
        <polygon class="cls-187" points="265.13 108.28 251.67 138.12 272.74 123.49 265.13 108.28"/>
        <polygon class="cls-163" points="204.26 0 219.48 55.02 273.32 18.73 204.26 0"/>
        <polygon class="cls-28" points="250.5 210.7 244.64 241.72 273.32 215.38 250.5 210.7"/>
        <polygon class="cls-104" points="251.67 186.7 250.5 210.7 273.32 215.38 251.67 186.7"/>
        <polygon class="cls-110" points="244.64 241.72 251.67 263.08 274.2 260.74 244.64 241.72"/>
        <polygon class="cls-106" points="273.32 215.38 244.64 241.72 274.2 260.74 273.32 215.38"/>
        <polygon class="cls-21" points="251.67 263.08 254.59 278.3 274.2 260.74 251.67 263.08"/>
        <polygon class="cls-54" points="254.59 278.3 270.4 280.05 274.2 260.74 254.59 278.3"/>
        <polygon class="cls-30" points="274.2 260.74 270.4 280.05 279.18 284.74 274.2 260.74"/>
        <polygon class="cls-43" points="237.04 81.94 270.4 93.06 286.2 70.23 237.04 81.94"/>
        <polygon class="cls-119" points="219.48 55.02 237.04 81.94 286.2 70.23 219.48 55.02"/>
        <polygon class="cls-63" points="273.32 18.73 219.48 55.02 286.2 70.23 273.32 18.73"/>
        <polygon class="cls-58" points="273.32 18.73 286.2 70.23 287.37 19.9 273.32 18.73"/>
        <polygon class="cls-29" points="204.26 0 273.32 18.73 287.37 19.9 204.26 0"/>
        <polygon class="cls-12" points="274.2 260.74 279.18 284.74 291.47 262.5 274.2 260.74"/>
        <polygon class="cls-135" points="286.2 70.23 270.4 93.06 295.56 100.08 286.2 70.23"/>
        <polygon class="cls-42" points="270.4 93.06 265.13 108.28 295.56 100.08 270.4 93.06"/>
        <polygon class="cls-138" points="265.13 108.28 272.74 123.49 295.56 100.08 265.13 108.28"/>
        <polygon class="cls-106" points="273.32 215.38 274.2 260.74 296.15 251.37 273.32 215.38"/>
        <polygon class="cls-88" points="274.2 260.74 291.47 262.5 296.15 251.37 274.2 260.74"/>
        <polygon class="cls-125" points="291.47 262.5 279.18 284.74 296.15 281.22 291.47 262.5"/>
        <polygon class="cls-27" points="272.74 123.49 263.96 159.78 298.49 192.56 272.74 123.49"/>
        <polygon class="cls-152" points="263.96 159.78 251.67 186.7 298.49 192.56 263.96 159.78"/>
        <polygon class="cls-81" points="251.67 186.7 273.32 215.38 298.49 192.56 251.67 186.7"/>
        <polygon class="cls-83" points="273.32 215.38 296.15 251.37 321.9 230.6 273.32 215.38"/>
        <polygon class="cls-40" points="298.49 192.56 273.32 215.38 321.9 230.6 298.49 192.56"/>
        <polygon class="cls-24" points="321.9 230.6 296.15 251.37 321.9 279.47 321.9 230.6"/>
        <polygon class="cls-146" points="296.15 251.37 291.47 262.5 321.9 279.47 296.15 251.37"/>
        <polygon class="cls-12" points="291.47 262.5 296.15 281.22 321.9 279.47 291.47 262.5"/>
        <polygon class="cls-169" points="287.37 19.9 286.2 70.23 324.83 67.89 287.37 19.9"/>
        <polygon class="cls-51" points="286.2 70.23 295.56 100.08 324.83 67.89 286.2 70.23"/>
        <polygon class="cls-8" points="298.49 192.56 321.9 230.6 327.75 198.7 298.49 192.56"/>
        <polygon class="cls-125" points="327.75 198.7 321.9 230.6 334.78 212.75 327.75 198.7"/>
        <polygon class="cls-32" points="324.83 67.89 295.56 100.08 335.36 95.98 324.83 67.89"/>
        <polygon class="cls-6" points="327.75 198.7 334.78 212.75 345.31 213.92 327.75 198.7"/>
        <polygon class="cls-128" points="334.78 212.75 321.9 230.6 345.31 213.92 334.78 212.75"/>
        <polygon class="cls-114" points="324.83 67.89 335.36 95.98 345.9 87.21 324.83 67.89"/>
        <polygon class="cls-98" points="287.37 19.9 324.83 67.89 345.9 87.21 287.37 19.9"/>
        <polygon class="cls-108" points="327.75 198.7 345.31 213.92 351.75 177.63 327.75 198.7"/>
        <polygon class="cls-62" points="298.49 192.56 327.75 198.7 351.75 177.63 298.49 192.56"/>
        <polygon class="cls-32" points="321.9 230.6 321.9 279.47 352.92 258.98 321.9 230.6"/>
        <polygon class="cls-144" points="335.36 95.98 295.56 100.08 355.26 123.49 335.36 95.98"/>
        <polygon class="cls-78" points="345.9 87.21 335.36 95.98 355.26 123.49 345.9 87.21"/>
        <polygon class="cls-145" points="345.31 213.92 321.9 230.6 355.26 234.4 345.31 213.92"/>
        <polygon class="cls-49" points="321.9 230.6 352.92 258.98 355.26 234.4 321.9 230.6"/>
        <polygon class="cls-17" points="295.56 100.08 272.74 123.49 355.85 134.61 295.56 100.08"/>
        <polygon class="cls-95" points="355.26 123.49 295.56 100.08 355.85 134.61 355.26 123.49"/>
        <polygon class="cls-129" points="272.74 123.49 298.49 192.56 355.85 134.61 272.74 123.49"/>
        <polygon class="cls-80" points="298.49 192.56 351.75 177.63 358.77 151.59 298.49 192.56"/>
        <polygon class="cls-164" points="355.85 134.61 298.49 192.56 358.77 151.59 355.85 134.61"/>
        <polygon class="cls-46" points="355.26 123.49 355.85 134.61 372.23 127 355.26 123.49"/>
        <polygon class="cls-41" points="355.85 134.61 358.77 151.59 372.23 127 355.85 134.61"/>
        <polygon class="cls-148" points="345.9 87.21 355.26 123.49 372.23 127 345.9 87.21"/>
        <polygon class="cls-73" points="358.77 151.59 351.75 177.63 378.09 194.6 358.77 151.59"/>
        <polygon class="cls-31" points="351.75 177.63 345.31 213.92 378.09 194.6 351.75 177.63"/>
        <polygon class="cls-111" points="378.09 194.6 345.31 213.92 378.09 204.55 378.09 194.6"/>
      </g>
    </g>
  </g>
</svg>