<?xml version="1.0" encoding="UTF-8"?>
<svg xmlns="http://www.w3.org/2000/svg" width="931.87" height="886.83" xmlns:xlink="http://www.w3.org/1999/xlink" viewBox="0 0 931.87 886.83">
  <defs>
    <style>
      .cls-1 {
        fill: #0f341d;
      }

      .cls-2 {
        fill: #034c27;
      }

      .cls-3 {
        fill: #4e3316;
      }

      .cls-4 {
        fill: #3b9144;
      }

      .cls-5 {
        fill: #2c823f;
      }

      .cls-6 {
        fill: url(#linear-gradient-7);
      }

      .cls-6, .cls-7, .cls-8, .cls-9, .cls-10 {
        mix-blend-mode: color-dodge;
        opacity: .26;
      }

      .cls-11 {
        fill: #0e4522;
      }

      .cls-12 {
        fill: #7cae42;
      }

      .cls-13 {
        fill: #0d351e;
      }

      .cls-14 {
        fill: #2b8b43;
      }

      .cls-7 {
        fill: url(#linear-gradient-6);
      }

      .cls-15 {
        fill: #454b20;
      }

      .cls-16 {
        fill: #1e2216;
      }

      .cls-17 {
        fill: #0d351d;
      }

      .cls-18 {
        fill: #f3bf6b;
      }

      .cls-19 {
        fill: #419f47;
      }

      .cls-20 {
        fill: #4f481e;
      }

      .cls-21 {
        opacity: .65;
      }

      .cls-21, .cls-22, .cls-23, .cls-24 {
        mix-blend-mode: multiply;
      }

      .cls-21, .cls-25 {
        fill: #e5895a;
      }

      .cls-26 {
        fill: #80af41;
      }

      .cls-27 {
        fill: #044c26;
      }

      .cls-28 {
        fill: #03572d;
      }

      .cls-29 {
        fill: #68471b;
      }

      .cls-30 {
        fill: #df9155;
      }

      .cls-8 {
        fill: url(#linear-gradient-8);
      }

      .cls-31 {
        fill: #f1be63;
      }

      .cls-32 {
        fill: #4b4018;
      }

      .cls-33 {
        fill: #db8e54;
      }

      .cls-34 {
        fill: #036635;
      }

      .cls-22 {
        fill: url(#linear-gradient-3);
      }

      .cls-22, .cls-35, .cls-23, .cls-36, .cls-37 {
        fill-rule: evenodd;
      }

      .cls-22, .cls-23, .cls-24 {
        opacity: .18;
      }

      .cls-38 {
        fill: #0c4422;
      }

      .cls-39 {
        fill: #81c241;
      }

      .cls-40 {
        fill: #b7d774;
      }

      .cls-41 {
        fill: #05522a;
      }

      .cls-42 {
        fill: #1a8140;
      }

      .cls-43 {
        fill: #66451a;
      }

      .cls-44 {
        fill: #cc5e35;
      }

      .cls-45 {
        fill: #0d4221;
      }

      .cls-46 {
        fill: #fcdd88;
      }

      .cls-47 {
        fill: #0a4a26;
      }

      .cls-48 {
        fill: #c8db6a;
      }

      .cls-49 {
        fill: #066d3b;
      }

      .cls-50 {
        fill: #017941;
      }

      .cls-51 {
        fill: #057b3f;
      }

      .cls-52 {
        fill: #acd267;
      }

      .cls-53 {
        fill: #bf765e;
      }

      .cls-54 {
        fill: #035c30;
      }

      .cls-55 {
        fill: #372f16;
      }

      .cls-9 {
        fill: url(#linear-gradient-9);
      }

      .cls-56 {
        fill: #066234;
      }

      .cls-57 {
        fill: #abcd59;
      }

      .cls-58 {
        fill: #0f1d15;
      }

      .cls-59 {
        fill: #352f16;
      }

      .cls-60 {
        fill: #2b9446;
      }

      .cls-61 {
        fill: #f6cd76;
      }

      .cls-62 {
        isolation: isolate;
      }

      .cls-63 {
        fill: #12ae4b;
      }

      .cls-64 {
        fill: #0d8943;
      }

      .cls-65 {
        fill: #6fb744;
      }

      .cls-66 {
        fill: #a8d168;
      }

      .cls-67 {
        fill: #add365;
      }

      .cls-68 {
        fill: #f1b96d;
      }

      .cls-69 {
        fill: #35b34a;
      }

      .cls-70 {
        fill: #035a2f;
      }

      .cls-71 {
        fill: #358a42;
      }

      .cls-72 {
        fill: #048342;
      }

      .cls-73 {
        fill: #2d8641;
      }

      .cls-10 {
        fill: url(#linear-gradient-10);
      }

      .cls-74 {
        fill: #64b346;
      }

      .cls-75 {
        fill: #0f4623;
      }

      .cls-35 {
        fill: url(#linear-gradient-2);
      }

      .cls-76 {
        fill: #c2822b;
      }

      .cls-77 {
        fill: #0b4321;
      }

      .cls-78 {
        fill: #b8d774;
      }

      .cls-79 {
        fill: #0d361e;
      }

      .cls-80 {
        fill: #c27d5b;
      }

      .cls-81 {
        fill: #fdcd77;
      }

      .cls-82 {
        fill: #d88f2a;
      }

      .cls-83 {
        fill: #84bd42;
      }

      .cls-84 {
        fill: #123c20;
      }

      .cls-85 {
        fill: #122e1c;
      }

      .cls-86 {
        fill: #010101;
        opacity: .1;
      }

      .cls-87 {
        fill: #0e3e20;
      }

      .cls-23 {
        fill: url(#linear-gradient-4);
      }

      .cls-88 {
        fill: #c77e5d;
      }

      .cls-89 {
        fill: #81bc41;
      }

      .cls-90 {
        fill: #7aaf42;
      }

      .cls-91 {
        fill: #10391f;
      }

      .cls-92 {
        fill: #132c1b;
      }

      .cls-93 {
        fill: #c2802a;
      }

      .cls-94 {
        fill: #0c7a3e;
      }

      .cls-95 {
        fill: #3b361a;
      }

      .cls-96 {
        fill: #85b941;
      }

      .cls-97 {
        fill: #0e4b25;
      }

      .cls-98 {
        fill: #103c20;
      }

      .cls-99 {
        fill: #10a74a;
      }

      .cls-100 {
        fill: #11301d;
      }

      .cls-101 {
        fill: #f9cb78;
      }

      .cls-102 {
        fill: #036334;
      }

      .cls-103 {
        fill: #2c8140;
      }

      .cls-104 {
        fill: #142f1c;
      }

      .cls-105 {
        fill: #0fad4b;
      }

      .cls-106 {
        fill: #0f321c;
      }

      .cls-107 {
        fill: #f3c065;
      }

      .cls-108 {
        fill: #cb8660;
      }

      .cls-109 {
        fill: #09703b;
      }

      .cls-110 {
        fill: #359946;
      }

      .cls-111 {
        fill: #03592d;
      }

      .cls-112 {
        fill: #104221;
      }

      .cls-113 {
        fill: #3d3918;
      }

      .cls-114 {
        fill: #edb05b;
      }

      .cls-115 {
        fill: #69b345;
      }

      .cls-116 {
        fill: #52461d;
      }

      .cls-117 {
        fill: #d48029;
      }

      .cls-118, .cls-36 {
        fill: #fdcba5;
      }

      .cls-119 {
        fill: #102719;
      }

      .cls-120 {
        fill: #d27f28;
      }

      .cls-121 {
        fill: #026534;
      }

      .cls-122 {
        fill: #0f8040;
      }

      .cls-123 {
        fill: #a8d16c;
      }

      .cls-124 {
        fill: #0f4120;
      }

      .cls-125 {
        fill: #076132;
      }

      .cls-126 {
        fill: #035b30;
      }

      .cls-127 {
        fill: #025e32;
      }

      .cls-24 {
        fill: #da7346;
      }

      .cls-128 {
        fill: #a3ce59;
      }

      .cls-129 {
        fill: #dca174;
      }

      .cls-130 {
        fill: #e5e78d;
      }

      .cls-131 {
        fill: #138140;
      }

      .cls-132 {
        fill: #453517;
      }

      .cls-133 {
        fill: #84ba41;
      }

      .cls-134 {
        fill: #64a744;
      }

      .cls-135 {
        fill: #d5855a;
      }

      .cls-136 {
        fill: #78b243;
      }

      .cls-137 {
        fill: #066f3a;
      }

      .cls-138 {
        fill: #05763e;
      }

      .cls-139 {
        fill: #123b1f;
      }

      .cls-140 {
        fill: #b4d673;
      }

      .cls-141 {
        fill: #016837;
      }

      .cls-142 {
        fill: #258441;
      }

      .cls-143 {
        fill: #10381f;
      }

      .cls-144 {
        fill: #017d42;
      }

      .cls-145 {
        fill: #38361a;
      }

      .cls-146 {
        fill: #337f3e;
      }

      .cls-147 {
        fill: #0caa4b;
      }

      .cls-148 {
        fill: #b5d570;
      }

      .cls-149 {
        fill: url(#linear-gradient-5);
      }

      .cls-150 {
        fill: #493919;
      }

      .cls-151 {
        fill: #0e4020;
      }

      .cls-152 {
        fill: #4e3a18;
      }

      .cls-153 {
        fill: #77b443;
      }

      .cls-154 {
        fill: #113a20;
      }

      .cls-155 {
        fill: #cc7e29;
      }

      .cls-156 {
        fill: #288743;
      }

      .cls-157 {
        fill: #08723b;
      }

      .cls-158 {
        fill: #7bae42;
      }

      .cls-37 {
        fill: #cd6d42;
      }

      .cls-159 {
        fill: #084b25;
      }

      .cls-160 {
        fill: #046b38;
      }

      .cls-161 {
        fill: #036032;
      }

      .cls-162 {
        fill: #035d31;
      }

      .cls-163 {
        fill: none;
      }

      .cls-164 {
        fill: #05532a;
      }

      .cls-165 {
        fill: #0f391f;
      }

      .cls-166 {
        fill: #dca478;
      }

      .cls-167 {
        fill: #a8d063;
      }

      .cls-168 {
        fill: #e49934;
      }

      .cls-169 {
        fill: #035f32;
      }

      .cls-170 {
        fill: #6fb444;
      }

      .cls-171 {
        fill: #e7a857;
      }

      .cls-172 {
        fill: #67b445;
      }

      .cls-173 {
        fill: #0e4f28;
      }

      .cls-174 {
        fill: #0a4b25;
      }

      .cls-175 {
        fill: #076d39;
      }

      .cls-176 {
        fill: #0a4422;
      }

      .cls-177 {
        fill: #db7928;
      }

      .cls-178 {
        fill: #b2d56a;
      }

      .cls-179 {
        fill: #158342;
      }

      .cls-180 {
        fill: #137d3f;
      }

      .cls-181 {
        fill: #057f41;
      }

      .cls-182 {
        fill: #319947;
      }

      .cls-183 {
        fill: #045029;
      }

      .cls-184 {
        fill: #03562c;
      }

      .cls-185 {
        fill: #3eb449;
      }

      .cls-186 {
        fill: #0f3b20;
      }

      .cls-187 {
        fill: #634119;
      }

      .cls-188 {
        fill: #2c8942;
      }

      .cls-189 {
        fill: #112b1a;
      }

      .cls-190 {
        fill: #ca7f2a;
      }

      .cls-191 {
        fill: #11311d;
      }

      .cls-192 {
        fill: #433117;
      }

      .cls-193 {
        fill: #05532b;
      }

      .cls-194 {
        fill: #ca805f;
      }

      .cls-195 {
        fill: #328e43;
      }

      .cls-196 {
        fill: #be7d2a;
      }

      .cls-197 {
        fill: #2c2414;
      }

      .cls-198 {
        fill: #db7e28;
      }

      .cls-199 {
        fill: #805321;
      }

      .cls-200 {
        fill: #0e4322;
      }

      .cls-201 {
        fill: #a8d161;
      }

      .cls-202 {
        fill: #07743e;
      }

      .cls-203 {
        fill: #035e31;
      }

      .cls-204 {
        fill: #e8a259;
      }

      .cls-205 {
        fill: #c57c5c;
      }

      .cls-206 {
        fill: #1f8240;
      }

      .cls-207 {
        fill: #ad6a5c;
      }

      .cls-208 {
        fill: url(#linear-gradient);
      }

      .cls-209 {
        fill: #7d3f1c;
      }

      .cls-210 {
        fill: #a9d05f;
      }

      .cls-211 {
        fill: #83bc41;
      }

      .cls-212 {
        fill: #add36c;
      }

      .cls-213 {
        fill: #018241;
      }

      .cls-214 {
        fill: #066133;
      }

      .cls-215 {
        fill: #3f3518;
      }

      .cls-216 {
        fill: #22311b;
      }

      .cls-217 {
        fill: #82b941;
      }

      .cls-218 {
        fill: #0b4523;
      }

      .cls-219 {
        fill: #a6d05b;
      }

      .cls-220 {
        fill: #d67c27;
      }

      .cls-221 {
        fill: #c77f5e;
      }

      .cls-222 {
        fill: #8dc240;
      }

      .cls-223 {
        fill: #0d371f;
      }

      .cls-224 {
        fill: #2a8842;
      }

      .cls-225 {
        fill: #d69372;
      }

      .cls-226 {
        fill: #493d18;
      }

      .cls-227 {
        fill: #103d20;
      }

      .cls-228 {
        fill: #ffedcb;
      }

      .cls-229 {
        fill: #03793e;
      }

      .cls-230 {
        fill: #d88e29;
      }

      .cls-231 {
        fill: #9fcc54;
      }

      .cls-232 {
        fill: #dd9f6f;
      }

      .cls-233 {
        fill: #046a37;
      }

      .cls-234 {
        fill: #c98865;
      }

      .cls-235 {
        fill: #0e4523;
      }

      .cls-236 {
        fill: #b2d56c;
      }
    </style>
    <linearGradient id="linear-gradient" x1="41.04" y1="457.35" x2="889.75" y2="457.35" gradientTransform="translate(0 919.13) scale(1 -1)" gradientUnits="userSpaceOnUse">
      <stop offset="0" stop-color="#72b153"/>
      <stop offset="1" stop-color="#a7d273"/>
    </linearGradient>
    <linearGradient id="linear-gradient-2" x1="630.68" y1="343.53" x2="634.53" y2="227.04" gradientUnits="userSpaceOnUse">
      <stop offset="0" stop-color="#e67943"/>
      <stop offset=".27" stop-color="#eb8b50"/>
      <stop offset=".73" stop-color="#f2a563"/>
      <stop offset="1" stop-color="#f5af6a"/>
    </linearGradient>
    <linearGradient id="linear-gradient-3" x1="599.49" y1="282.2" x2="806.36" y2="282.2" gradientUnits="userSpaceOnUse">
      <stop offset="0" stop-color="#901843"/>
      <stop offset=".13" stop-color="#9f385d"/>
      <stop offset=".56" stop-color="#d2a2b3"/>
      <stop offset=".86" stop-color="#f2e4e9"/>
      <stop offset="1" stop-color="#fff"/>
    </linearGradient>
    <linearGradient id="linear-gradient-4" x1="594.07" y1="401.74" x2="940.16" y2="401.74" xlink:href="#linear-gradient-3"/>
    <linearGradient id="linear-gradient-5" x1="658.86" y1="391.35" x2="619.04" y2="133.91" gradientUnits="userSpaceOnUse">
      <stop offset="0" stop-color="#e67943"/>
      <stop offset="1" stop-color="#f5af6a"/>
    </linearGradient>
    <linearGradient id="linear-gradient-6" x1="336.59" y1="208.65" x2="488.47" y2="208.65" gradientUnits="userSpaceOnUse">
      <stop offset="0" stop-color="#010101"/>
      <stop offset="1" stop-color="#f89947"/>
    </linearGradient>
    <linearGradient id="linear-gradient-7" x1="348.24" y1="260.9" x2="626.18" y2="260.9" xlink:href="#linear-gradient-6"/>
    <linearGradient id="linear-gradient-8" x1="332.14" y1="294.96" x2="627.37" y2="294.96" xlink:href="#linear-gradient-6"/>
    <linearGradient id="linear-gradient-9" x1="673.51" y1="231.94" x2="819.82" y2="231.94" xlink:href="#linear-gradient-6"/>
    <linearGradient id="linear-gradient-10" x1="571.19" y1="206.94" x2="635.61" y2="206.94" xlink:href="#linear-gradient-6"/>
  </defs>
  <g class="cls-62">
    <g id="Layer_2" data-name="Layer 2">
      <g id="Layer_1-2" data-name="Layer 1">
        <g>
          <g id="floating-island3">
            <polygon id="dark-bg" class="cls-108" points="852.82 488.91 831.67 496.19 774.16 496.19 639.32 506.76 347.16 506.76 117.8 498.83 58.31 485.61 111.19 570.88 208.35 615.16 272.47 700.43 327.99 800.24 397.57 852.03 444.33 886.83 636.67 742.73 782.75 702.41 813.02 604.8 825.15 534.13 852.82 488.91"/>
            <polygon id="light-bg" class="cls-31" points="348.56 522.79 355.09 597.32 381.53 643.59 402.02 707.21 404.67 735.46 422.51 785.7 444.33 886.83 327.99 800.24 272.47 700.43 208.35 615.16 111.19 570.88 67.95 498.83 348.56 522.79"/>
            <g id="land">
              <polygon class="cls-204" points="381.53 643.59 272.47 700.43 402.02 707.21 381.53 643.59"/>
              <polygon class="cls-18" points="208.35 615.16 111.19 570.88 355.09 597.32 208.35 615.16"/>
              <polygon class="cls-46" points="117.8 498.83 156.8 575.82 111.19 570.88 58.31 485.61 117.8 498.83"/>
              <polygon class="cls-107" points="117.8 498.83 156.8 575.82 347.16 506.76 117.8 498.83"/>
              <polygon class="cls-114" points="347.16 506.76 355.09 597.32 156.8 575.82 347.16 506.76"/>
              <polygon class="cls-53" points="355.09 597.32 597.06 625.58 347.16 506.76 355.09 597.32"/>
              <polygon class="cls-88" points="347.16 506.76 639.32 506.76 642.62 621.77 597.06 625.58 347.16 506.76"/>
              <polygon class="cls-221" points="642.62 621.77 774.16 496.19 639.32 506.76 642.62 621.77"/>
              <polygon class="cls-205" points="642.62 621.77 769.53 637.64 774.16 496.19 642.62 621.77"/>
              <polygon class="cls-225" points="769.53 637.64 813.02 604.8 774.16 496.19 769.53 637.64"/>
              <polygon class="cls-166" points="825.72 533.2 831.67 496.19 852.82 488.91 825.72 533.2"/>
              <polygon class="cls-232" points="831.67 496.19 813.02 604.8 774.16 496.19 831.67 496.19"/>
              <polygon class="cls-129" points="769.53 637.64 782.75 702.41 813.02 604.8 769.53 637.64"/>
              <polygon class="cls-108" points="769.53 637.64 700.79 716.96 597.06 686.22 642.62 621.77 769.53 637.64"/>
              <polygon class="cls-234" points="769.53 637.64 700.79 716.96 782.75 702.41 769.53 637.64"/>
              <polygon class="cls-207" points="782.75 702.41 700.79 716.96 551.41 728.19 636.67 742.73 782.75 702.41"/>
              <polygon class="cls-163" points="551.41 728.19 597.06 686.22 700.79 716.96 551.41 728.19"/>
              <polygon class="cls-31" points="355.09 597.32 381.53 643.59 232.69 612.21 355.09 597.32"/>
              <polygon class="cls-101" points="208.35 615.16 272.47 700.43 232.66 612.21 208.35 615.16"/>
              <polygon class="cls-30" points="272.47 700.43 402.02 707.21 404.67 735.46 355.09 785.7 330.64 785.7 272.47 700.43"/>
              <polygon class="cls-68" points="330.64 785.7 397.56 852.03 327.99 800.24 330.64 785.7"/>
              <polygon class="cls-61" points="327.99 800.24 330.64 785.7 272.47 700.43 327.99 800.24"/>
              <polygon class="cls-33" points="355.09 785.7 422.51 785.7 404.67 735.46 355.09 785.7"/>
              <polygon class="cls-171" points="381.53 643.59 232.66 612.21 272.47 700.43 381.53 643.59"/>
              <polygon class="cls-53" points="422.51 785.7 551.41 728.19 402.02 707.21 404.67 735.46 422.51 785.7"/>
              <polygon class="cls-135" points="330.64 785.7 515.71 785.7 444.33 886.83 397.56 852.03 330.64 785.7"/>
              <polygon class="cls-80" points="515.71 785.7 551.41 728.19 422.51 785.7 515.71 785.7"/>
              <polygon class="cls-53" points="551.41 728.19 636.67 742.73 444.33 886.83 515.71 785.7 551.41 728.19"/>
              <polygon class="cls-80" points="381.53 643.59 355.09 597.32 597.06 625.58 381.53 643.59"/>
              <polygon class="cls-194" points="381.53 643.59 597.06 686.22 642.62 621.77 381.53 643.59"/>
              <polygon class="cls-108" points="381.53 643.59 402.02 707.21 551.41 728.19 597.06 686.22 381.53 643.59"/>
              <polygon class="cls-53" points="597.06 686.22 551.41 728.19 700.79 716.96 597.06 686.22"/>
            </g>
            <g id="ground">
              <path class="cls-53" d="m889.93,485.47l-2-2.29,1.84,6-25.46,12.15s-200.27,12.14-200.12,19.14-261-2.14-261-2.14l-187.93-10.41-94.3-3.6-61.92-15.18-18-8.2v7.53l18.06,8.2,62.21,15.18,94.73,3.62,188.7,10.45s262.34,9.22,262.16,2.14,200.95-19.22,200.95-19.22l25.54-12.17-3.46-11.2Z"/>
              <path class="cls-208" d="m59.04,489.14l-18-8.2v-25.81l18-12.15,55-16.7h74.25l76.52-16.09h103.23l92.92-9.72h141.7l210.69,21.26,31.51,15.18,27.34,24.9,14.11,16.09,3.44,11.24-25.46,12.15s-200.25,12.18-200.1,19.18-261-2.14-261-2.14l-187.93-10.41-94.3-3.6-61.92-15.18Z"/>
            </g>
          </g>
          <g>
            <polygon class="cls-86" points="574.39 478.09 598.38 440.87 643.66 424.64 706.74 411.73 719.23 436.65 687.86 461.3 616.97 477.95 574.39 478.09"/>
            <g>
              <path class="cls-35" d="m659.54,461.17s-14.15,2.06-20.35,2.61c-6.19.57-27.18,0-27.18,0l-6.88-1-11.06-1.62,2.75-66.56,5.06-122.84,1.08-32.75.54-15.29,8.5-1.65h27.18l7.62,2.2.54,10.16,12.19,226.73Z"/>
              <path class="cls-22" d="m626.82,326.15c-9.78.5-19.91,2.25-27.33,3.82l2.41-58.2,1.08-32.74c5.01,1.84,10.86,3.37,16.76,3.57,15.73.55,18.19-.59,21.82-2,2.36-.89,5.26-3.73,5.8-6.16l4.96,92.2c-7.91-.54-17.25-.91-25.51-.48Z"/>
              <polygon class="cls-36" points="605.93 226.11 630.19 226.11 621.87 224.83 646.81 224.28 639.19 222.08 612.01 222.08 603.51 223.73 605.93 226.11"/>
              <polygon class="cls-37" points="630.19 227.24 635.09 242.34 632.64 227.24 630.19 227.24"/>
              <polygon class="cls-37" points="612.03 462.78 615.27 429.83 615.27 462.74 612.03 462.78"/>
              <path class="cls-23" d="m653.02,339.45c-7.81,1.2-18.48,2.62-30.32,3.61-8.45.7-16.71.89-23.79.86l-2.06,50.69c14.89-.02,37.4.18,38.24,1.46.3.46.9,4.24,1.53,9.75l-30.85,2.19-8.92-6.11-2.75,59.27,11.06,1.62.49-43.28h32.27c1.38,18.08,1.81,40.25-2.82,41.66-4.82,1.5-19.51,1.68-29.93,1.62l6.88,1s20.99.55,27.18,0c6.19-.55,20.35-2.62,20.35-2.62l-6.54-121.71Z"/>
            </g>
            <g>
              <path class="cls-118" d="m931.87,173.41s-13.69,1.11-35.74,2.87c-91.57,7.36-326.77,26.27-329.15,26.11-2.91-.2-245.06-11.18-245.06-11.18l21.05-7.68s52.09-5.81,117.88-11.34c21.61-1.83,44.73-3.62,67.93-5.13,35.18-2.35,70.6-4.14,101.52-4.66,46.64-.72,94.95-.84,135.67-.76,58.18.12,100.8.76,100.8.76l65.11,11.02Z"/>
              <path class="cls-228" d="m528.78,167.05l-34.82,14.09-61.64,3.9,28.53-12.85c21.61-1.83,44.73-3.62,67.93-5.13Z"/>
              <path class="cls-228" d="m931.87,173.41s-13.69,1.11-35.74,2.87c-.08,0-76.49-5.53-76.49-5.53l-53.65-9.11c58.14.12,100.76.76,100.76.76l65.11,11.02Z"/>
              <path class="cls-44" d="m321.9,191.19l13.12,116.62,8.97,30.92,44.98,7.26s193.48-28.09,249.73-29.34c56.26-1.25,167.02,1.64,167.02,1.64l14.17-10.02-6.5,10.02h65.65l26.03-8.61-116.79-53.12-466.38-65.37Z"/>
              <path class="cls-149" d="m931.87,173.41l-12.85,65.23-1.55,7.88-3.78,19.22-1.11,5.69-7.52,38.24s-83.57-1.91-162.45-1.95c-29.49,0-58.3.24-81.86.96-21.53.64-51.97,2.83-85.52,5.77-58.66,5.09-126.83,12.42-173.87,17.67-.16.04-.28.08-.4.08-34.03,3.78-56.95,6.53-56.95,6.53l-.32-2.19s-2.55-16.91-2.55-16.91l-5.73-38.4s-13.49-90.02-13.49-90.02c10.03-1.03,19.94-2.07,29.73-3.02,14.01-1.39,27.82-2.67,41.39-3.9,63.16-5.65,121.66-9.55,175.06-12.18,16.71-.8,32.95-1.51,48.63-2.07,3.7-.16,7.4-.28,11.02-.4,4.22-.16,8.36-.28,12.5-.4,7.12-.24,14.05-.44,20.89-.6,4.82-.12,9.59-.24,14.29-.36,55.16-1.19,102.28-.99,140.52-.2,10.74.2,20.77.48,30.09.8,10.47.32,20.06.68,28.69,1.03,7.04.32,13.45.64,19.22.96,24.87,1.35,37.93,2.55,37.93,2.55Z"/>
              <path class="cls-24" d="m919.02,238.64l-1.55,7.88c-22.33,6.73-65.54,18.27-101.92,19.82-51.62,2.19-163.64-9.55-244.91-1.03-69.84,7.32-195.48,44.09-229.5,54.32l-5.73-38.4c3.38,5.93,9.11,14.33,14.41,14.13,8.2-.28,166.27-47.36,268.98-43.06,102.67,4.3,182.07,11.98,240.65,1.87,28.61-4.93,47.64-10.82,59.57-15.52Z"/>
              <path class="cls-24" d="m913.68,265.74l-1.11,5.69c-17.95,6.21-52.33,16.12-93.6,18.07-61.01,2.91-159.38-5.53-213.67,0-47.52,4.89-173.27,35.14-203.96,42.62-.16.04-.28.08-.4.08-34.03,3.78-56.95,6.53-56.95,6.53l-.32-2.19c33.59-10.07,176.89-51.46,270.81-54.84,106.97-3.9,173.67,7.68,228.23.88,33.79-4.18,57.66-11.7,70.96-16.83Z"/>
              <path class="cls-24" d="m816.78,298.41c-3.02.48-36.77,5.69-74.18,9.31-29.49,0-58.3.24-81.86.96-21.53.64-51.97,2.83-85.52,5.77,25.11-6.25,57.19-12.69,86.16-14.05,58.78-2.71,107.05,2.07,131.33,0,19.26-1.59,23.24-1.95,24.08-1.99Z"/>
              <path class="cls-24" d="m887.07,217.42s-65.36,16.05-92.92,19.98c-27.56,3.93-68.67,5.95-68.67,5.95,0,0,37.79,8.65,91.52,0s70.08-25.93,70.08-25.93Z"/>
              <path class="cls-24" d="m465.58,254.44s-54.52,15-73.07,16.2c-18.58,1.19-27.22,0-27.22,0,1.31-.88,21.93-14.41,43.14-16.2,21.89-1.83,57.15,0,57.15,0Z"/>
              <path class="cls-24" d="m393.83,239.56s-2.94,3.18-7.72,6.37c-5.21,3.46-12.58,6.88-20.81,6.37-15.92-.99-21.01-2.31-21.01-2.31,0,0,5.09-5.73,16.4-8.2,11.26-2.43,33.15-2.23,33.15-2.23Z"/>
              <path class="cls-24" d="m616.72,170.03c-2.07,1.31-70.92,44.73-151.15,42.42-59.81-1.71-97.94-16.52-113.94-24.28,14.01-1.39,27.82-2.67,41.39-3.9,19.86,10.35,52.61,24.28,82.18,22.45,29.61-1.83,68.57-20.97,92.88-34.62,16.71-.8,32.95-1.51,48.63-2.07Z"/>
              <path class="cls-24" d="m893.94,170.87c-11.58,11.62-36.1,31.4-76.97,42.7-60.33,16.67-184.38,21.81-230.58,4.34-28.53-10.78,8.68-32.91,41.35-48.27,4.22-.16,8.36-.28,12.5-.4-26.11,11.9-51.89,26.42-46.96,35.58,9.51,17.75,93.72,23.92,180.56,8.76,54.44-9.51,85.4-29.81,100.88-43.66,7.04.32,13.45.64,19.22.96Z"/>
              <path class="cls-24" d="m846.03,168.88c-8.79,5.21-22.13,11.78-41.55,18.23-42.34,14.13-156.64,29.69-174.15,10.43-8.83-9.67,9.95-20.5,30.8-28.89,4.82-.12,9.59-.24,14.29-.36-22.56,11.02-40.51,25.55,3.78,31.84,51.18,7.28,106.3-16.08,136.74-32.04,10.74.2,20.77.48,30.09.8Z"/>
              <polygon class="cls-25" points="675.42 168.28 729.44 176.04 766.46 172.16 775.68 167.52 722.84 167.05 675.42 168.28"/>
              <path class="cls-21" d="m393.83,239.56s-2.94,3.18-7.72,6.37c-3.94-.2-7.96-.24-11.5.04-12.85.92-30.32,4.02-30.32,4.02,0,0,5.09-5.73,16.4-8.2,11.26-2.43,33.15-2.23,33.15-2.23Z"/>
              <path class="cls-21" d="m465.58,254.44s-37.93,2.83-55.16,5.57c-16.71,2.67-43.42,10.15-45.05,10.59,1.23-.84,21.85-14.37,43.06-16.16,21.89-1.83,57.15,0,57.15,0Z"/>
              <path class="cls-7" d="m390.54,202.15s43.97,16.85,87.75,13.31c43.78-3.54,66.62-14.11,66.62-14.11,0,0-36.45,9.59-77.19,11.19-40.73,1.6-77.18-10.39-77.18-10.39Z"/>
              <path class="cls-6" d="m446.96,272.51s79.97-19.71,148.94-18.88c68.98.83,133.55,4.02,133.55,4.02,0,0-84.91-11.18-144.6-7.67-59.69,3.51-137.89,22.52-137.89,22.52Z"/>
              <path class="cls-8" d="m437,311.25s85.06-25.01,146.96-30.55c61.9-5.54,153.1,2.05,153.1,2.05,0,0-93.76-2.94-155.27,1.36-61.51,4.31-144.8,27.13-144.8,27.13Z"/>
              <path class="cls-9" d="m725.48,243.35s38.74-1.51,85.91-8.95c47.17-7.44,62.8-13.88,62.8-13.88,0,0-110.67,23.3-148.71,22.83Z"/>
              <path class="cls-10" d="m599.77,192.1s-6.91,7.21,0,14.43c6.91,7.22,59.78,15.25,59.78,15.25,0,0-55.27-3.57-62.78-13.12-7.51-9.55,3-16.55,3-16.55Z"/>
              <polygon class="cls-44" points="874.18 199.59 859.43 209.78 846.03 215.95 865.41 209.78 874.18 199.59"/>
              <polygon class="cls-44" points="876.92 208.65 887.07 190.05 887.07 199.01 876.92 208.65"/>
              <polygon class="cls-44" points="544.91 222.75 540.77 215.16 551.15 208.65 554.98 212.54 557.27 221.67 544.91 222.75"/>
              <polygon class="cls-81" points="543.69 220.52 552.68 218.78 554.98 212.54 557.27 221.67 544.91 222.75 543.69 220.52"/>
              <polygon class="cls-44" points="369.05 215.16 373.93 220.61 379.23 216.63 369.05 215.16"/>
              <path class="cls-44" d="m919.02,238.64s-36.34,1.12-39.11.91c-2.77-.21-57.79,10.43-57.79,10.43l59.88-5.22,36.25-2.21.77-3.92Z"/>
            </g>
          </g>
          <g>
            <path class="cls-86" d="m177.34,446.24c-1.74,1.78-16.39,14.07-16.39,14.07l12.88,14.81h35.12l50.48-3.56,38.19-16.89,11.41-18.37-12.88-13.46-23.68-5.95-39.33,9.78-35.9,9.63-19.9,9.92Z"/>
            <g>
              <polygon class="cls-140" points="21.07 97.16 0 161.54 22.83 156.85 21.07 97.16"/>
              <polygon class="cls-219" points="22.83 156.85 0 161.54 35.12 204.85 22.83 156.85"/>
              <polygon class="cls-4" points="22.83 156.85 35.12 204.85 49.16 204.85 22.83 156.85"/>
              <polygon class="cls-78" points="49.75 210.7 40.38 248.74 61.45 237.62 49.75 210.7"/>
              <polygon class="cls-148" points="21.07 97.16 22.83 156.85 63.79 113.54 21.07 97.16"/>
              <polygon class="cls-178" points="61.45 237.62 40.38 248.74 72.57 256.35 61.45 237.62"/>
              <polygon class="cls-40" points="63.79 113.54 22.83 156.85 74.33 122.32 63.79 113.54"/>
              <polygon class="cls-158" points="61.45 237.62 72.57 256.35 84.28 227.09 61.45 237.62"/>
              <polygon class="cls-158" points="49.75 210.7 61.45 237.62 84.28 227.09 49.75 210.7"/>
              <polygon class="cls-57" points="72.57 256.35 40.38 248.74 87.21 300.83 72.57 256.35"/>
              <polygon class="cls-126" points="49.16 204.85 49.75 210.7 89.55 206.02 49.16 204.85"/>
              <polygon class="cls-162" points="49.75 210.7 84.28 227.09 89.55 206.02 49.75 210.7"/>
              <polygon class="cls-236" points="21.07 97.16 63.79 113.54 91.89 40.97 21.07 97.16"/>
              <polygon class="cls-5" points="49.16 204.85 89.55 206.02 91.89 176.75 49.16 204.85"/>
              <polygon class="cls-142" points="22.83 156.85 49.16 204.85 91.89 176.75 22.83 156.85"/>
              <polygon class="cls-12" points="74.33 122.32 22.83 156.85 91.89 176.75 74.33 122.32"/>
              <polygon class="cls-90" points="74.33 122.32 91.89 176.75 102.42 162.71 74.33 122.32"/>
              <polygon class="cls-224" points="74.33 122.32 102.42 162.71 108.28 138.12 74.33 122.32"/>
              <polygon class="cls-127" points="89.55 206.02 84.28 227.09 108.28 239.38 89.55 206.02"/>
              <polygon class="cls-26" points="84.28 227.09 72.57 256.35 108.28 239.38 84.28 227.09"/>
              <polygon class="cls-195" points="72.57 256.35 87.21 300.83 113.54 293.81 72.57 256.35"/>
              <polygon class="cls-142" points="108.28 239.38 72.57 256.35 113.54 293.81 108.28 239.38"/>
              <polygon class="cls-206" points="91.89 176.75 89.55 206.02 114.13 178.51 91.89 176.75"/>
              <polygon class="cls-134" points="102.42 162.71 91.89 176.75 114.13 178.51 102.42 162.71"/>
              <polygon class="cls-156" points="108.28 138.12 102.42 162.71 116.47 169.73 108.28 138.12"/>
              <polygon class="cls-71" points="102.42 162.71 114.13 178.51 116.47 169.73 102.42 162.71"/>
              <polygon class="cls-161" points="89.55 206.02 108.28 239.38 118.81 206.02 89.55 206.02"/>
              <polygon class="cls-180" points="114.13 178.51 89.55 206.02 118.81 206.02 114.13 178.51"/>
              <polygon class="cls-168" points="113.54 312.83 113.54 317.51 118.81 315.17 113.54 312.83"/>
              <polygon class="cls-73" points="116.47 169.73 114.13 178.51 121.74 186.12 116.47 169.73"/>
              <polygon class="cls-160" points="114.13 178.51 118.81 206.02 121.74 186.12 114.13 178.51"/>
              <polygon class="cls-180" points="121.74 186.12 118.81 206.02 125.25 194.31 121.74 186.12"/>
              <polygon class="cls-133" points="63.79 113.54 74.33 122.32 125.83 64.38 63.79 113.54"/>
              <polygon class="cls-52" points="91.89 40.97 63.79 113.54 125.83 64.38 91.89 40.97"/>
              <polygon class="cls-175" points="74.33 122.32 108.28 138.12 127.59 117.05 74.33 122.32"/>
              <polygon class="cls-96" points="125.83 64.38 74.33 122.32 127.59 117.05 125.83 64.38"/>
              <polygon class="cls-111" points="108.28 239.38 113.54 293.81 129.35 263.37 108.28 239.38"/>
              <polygon class="cls-169" points="127.59 117.05 108.28 138.12 132.86 125.83 127.59 117.05"/>
              <polygon class="cls-230" points="118.81 315.17 113.54 317.51 133.44 333.9 118.81 315.17"/>
              <polygon class="cls-14" points="129.35 263.37 113.54 293.81 138.71 289.42 129.35 263.37"/>
              <polygon class="cls-29" points="118.81 315.17 133.44 333.9 139.3 329.22 118.81 315.17"/>
              <polygon class="cls-125" points="116.47 169.73 121.74 186.12 139.88 189.63 116.47 169.73"/>
              <polygon class="cls-121" points="121.74 186.12 125.25 194.31 139.88 189.63 121.74 186.12"/>
              <polygon class="cls-42" points="125.25 194.31 118.81 206.02 139.88 208.36 125.25 194.31"/>
              <polygon class="cls-56" points="139.88 189.63 125.25 194.31 139.88 208.36 139.88 189.63"/>
              <polygon class="cls-102" points="118.81 206.02 108.28 239.38 139.88 208.36 118.81 206.02"/>
              <polygon class="cls-212" points="91.89 40.97 125.83 64.38 140.47 39.21 91.89 40.97"/>
              <polygon class="cls-214" points="116.47 169.73 139.88 189.63 142.22 141.64 116.47 169.73"/>
              <polygon class="cls-203" points="108.28 138.12 116.47 169.73 142.22 141.64 108.28 138.12"/>
              <polygon class="cls-214" points="132.86 125.83 108.28 138.12 142.22 141.64 132.86 125.83"/>
              <polygon class="cls-170" points="132.86 125.83 142.22 141.64 143.39 118.23 132.86 125.83"/>
              <polygon class="cls-229" points="127.59 117.05 132.86 125.83 143.39 118.23 127.59 117.05"/>
              <polygon class="cls-79" points="108.28 239.38 129.35 263.37 145.73 249.91 108.28 239.38"/>
              <polygon class="cls-173" points="139.88 208.36 108.28 239.38 145.73 249.91 139.88 208.36"/>
              <polygon class="cls-28" points="129.35 263.37 138.71 289.42 146.32 287.66 129.35 263.37"/>
              <polygon class="cls-216" points="146.32 287.66 138.71 289.42 148.66 312.83 146.32 287.66"/>
              <polygon class="cls-192" points="139.3 329.22 133.44 333.9 151 342.09 139.3 329.22"/>
              <polygon class="cls-193" points="139.88 189.63 139.88 208.36 157.44 196.65 139.88 189.63"/>
              <polygon class="cls-193" points="142.22 141.64 139.88 189.63 157.44 196.65 142.22 141.64"/>
              <polygon class="cls-91" points="145.73 249.91 129.35 263.37 158.02 267.18 145.73 249.91"/>
              <polygon class="cls-103" points="129.35 263.37 146.32 287.66 158.02 267.18 129.35 263.37"/>
              <polygon class="cls-227" points="139.88 208.36 145.73 249.91 158.61 235.28 139.88 208.36"/>
              <polygon class="cls-52" points="140.47 39.21 125.83 64.38 159.19 46.82 140.47 39.21"/>
              <polygon class="cls-152" points="151 342.09 133.44 333.9 159.19 364.92 151 342.09"/>
              <polygon class="cls-136" points="143.39 118.23 142.22 141.64 159.78 123.49 143.39 118.23"/>
              <polygon class="cls-215" points="148.66 312.83 155.68 326.88 160.37 318.68 148.66 312.83"/>
              <polygon class="cls-32" points="146.32 287.66 148.66 312.83 160.37 318.68 146.32 287.66"/>
              <polygon class="cls-184" points="157.44 196.65 139.88 208.36 160.95 206.02 157.44 196.65"/>
              <polygon class="cls-173" points="139.88 208.36 158.61 235.28 160.95 206.02 139.88 208.36"/>
              <polygon class="cls-128" points="143.39 118.23 159.78 123.49 163.29 100.67 143.39 118.23"/>
              <polygon class="cls-222" points="159.19 46.82 125.83 64.38 163.29 100.67 159.19 46.82"/>
              <polygon class="cls-158" points="125.83 64.38 127.59 117.05 163.29 100.67 125.83 64.38"/>
              <polygon class="cls-94" points="127.59 117.05 143.39 118.23 163.29 100.67 127.59 117.05"/>
              <polygon class="cls-209" points="151 342.09 159.19 364.92 167.39 352.63 151 342.09"/>
              <polygon class="cls-84" points="145.73 249.91 158.02 267.18 168.56 246.99 145.73 249.91"/>
              <polygon class="cls-151" points="158.61 235.28 145.73 249.91 168.56 246.99 158.61 235.28"/>
              <polygon class="cls-3" points="159.78 336.24 167.39 352.63 168.56 334.48 159.78 336.24"/>
              <polygon class="cls-150" points="155.68 326.88 159.78 336.24 168.56 334.48 155.68 326.88"/>
              <polygon class="cls-226" points="160.37 318.68 155.68 326.88 168.56 334.48 160.37 318.68"/>
              <polygon class="cls-184" points="160.95 206.02 158.61 235.28 180.85 236.74 160.95 206.02"/>
              <polygon class="cls-184" points="158.61 235.28 168.56 246.99 180.85 236.74 158.61 235.28"/>
              <polygon class="cls-16" points="167.39 352.63 159.19 364.92 183.78 380.14 167.39 352.63"/>
              <polygon class="cls-132" points="168.56 334.48 167.39 352.63 184.95 351.46 168.56 334.48"/>
              <polygon class="cls-55" points="167.39 352.63 183.78 380.14 184.95 351.46 167.39 352.63"/>
              <polygon class="cls-39" points="159.19 46.82 163.29 100.67 185.53 86.04 159.19 46.82"/>
              <polygon class="cls-210" points="163.29 100.67 159.78 123.49 189.04 117.64 163.29 100.67"/>
              <polygon class="cls-67" points="185.53 86.04 163.29 100.67 189.04 117.64 185.53 86.04"/>
              <polygon class="cls-146" points="158.02 267.18 146.32 287.66 189.63 277.42 158.02 267.18"/>
              <polygon class="cls-227" points="168.56 246.99 158.02 267.18 189.63 277.42 168.56 246.99"/>
              <polygon class="cls-54" points="180.85 236.74 168.56 246.99 191.38 251.67 180.85 236.74"/>
              <polygon class="cls-56" points="168.56 246.99 189.63 277.42 191.38 251.67 168.56 246.99"/>
              <polygon class="cls-97" points="180.85 236.74 191.38 251.67 193.73 229.72 180.85 236.74"/>
              <polygon class="cls-112" points="160.95 206.02 180.85 236.74 193.73 229.72 160.95 206.02"/>
              <polygon class="cls-123" points="159.19 46.82 185.53 86.04 196.65 70.23 159.19 46.82"/>
              <polygon class="cls-198" points="186.12 307.56 186.12 327.46 197.24 316.34 186.12 307.56"/>
              <polygon class="cls-196" points="189.63 277.42 186.12 307.56 197.82 289.42 189.63 277.42"/>
              <polygon class="cls-117" points="186.12 307.56 197.24 316.34 197.82 303.46 186.12 307.56"/>
              <polygon class="cls-120" points="197.82 289.42 186.12 307.56 197.82 303.46 197.82 289.42"/>
              <polygon class="cls-93" points="186.12 327.46 184.95 351.46 197.82 334.48 186.12 327.46"/>
              <polygon class="cls-190" points="197.24 316.34 186.12 327.46 197.82 334.48 197.24 316.34"/>
              <polygon class="cls-154" points="157.44 196.65 160.95 206.02 198.99 184.95 157.44 196.65"/>
              <polygon class="cls-174" points="160.95 206.02 193.73 229.72 198.99 184.95 160.95 206.02"/>
              <polygon class="cls-14" points="189.04 117.64 159.78 123.49 198.99 184.95 189.04 117.64"/>
              <polygon class="cls-84" points="142.22 141.64 157.44 196.65 198.99 184.95 142.22 141.64"/>
              <polygon class="cls-188" points="159.78 123.49 142.22 141.64 198.99 184.95 159.78 123.49"/>
              <polygon class="cls-155" points="197.82 334.48 184.95 351.46 198.99 358.48 197.82 334.48"/>
              <polygon class="cls-220" points="184.95 351.46 183.78 380.14 198.99 358.48 184.95 351.46"/>
              <polygon class="cls-177" points="183.78 380.14 197.82 390.08 198.99 358.48 183.78 380.14"/>
              <polygon class="cls-76" points="183.78 380.14 180.26 459.15 200.16 422.86 183.78 380.14"/>
              <polygon class="cls-199" points="197.82 390.08 183.78 380.14 200.16 422.86 197.82 390.08"/>
              <polygon class="cls-82" points="200.16 422.86 180.26 459.15 201.33 459.73 200.16 422.86"/>
              <polygon class="cls-66" points="140.47 39.21 159.19 46.82 204.26 0 140.47 39.21"/>
              <polygon class="cls-186" points="198.99 184.95 193.73 229.72 205.43 222.11 198.99 184.95"/>
              <polygon class="cls-116" points="197.82 334.48 198.99 358.48 207.19 340.34 197.82 334.48"/>
              <polygon class="cls-145" points="197.82 289.42 197.82 303.46 208.36 285.91 197.82 289.42"/>
              <polygon class="cls-197" points="189.63 277.42 197.82 289.42 208.36 285.91 189.63 277.42"/>
              <polygon class="cls-139" points="193.73 229.72 191.38 251.67 208.94 247.57 193.73 229.72"/>
              <polygon class="cls-227" points="205.43 222.11 193.73 229.72 208.94 247.57 205.43 222.11"/>
              <polygon class="cls-95" points="197.82 303.46 197.24 316.34 210.7 309.32 197.82 303.46"/>
              <polygon class="cls-113" points="208.36 285.91 197.82 303.46 210.7 309.32 208.36 285.91"/>
              <polygon class="cls-235" points="191.38 251.67 189.63 277.42 213.62 264.84 191.38 251.67"/>
              <polygon class="cls-218" points="208.94 247.57 191.38 251.67 213.62 264.84 208.94 247.57"/>
              <polygon class="cls-59" points="189.63 277.42 208.36 285.91 215.09 276.54 189.63 277.42"/>
              <polygon class="cls-2" points="213.62 264.84 189.63 277.42 215.09 276.54 213.62 264.84"/>
              <polygon class="cls-43" points="197.82 390.08 200.16 422.86 218.89 412.33 197.82 390.08"/>
              <polygon class="cls-29" points="198.99 358.48 197.82 390.08 218.89 412.33 198.99 358.48"/>
              <polygon class="cls-231" points="159.19 46.82 196.65 70.23 219.48 55.02 159.19 46.82"/>
              <polygon class="cls-167" points="204.26 0 159.19 46.82 219.48 55.02 204.26 0"/>
              <polygon class="cls-138" points="208.94 247.57 213.62 264.84 220.06 254.89 208.94 247.57"/>
              <polygon class="cls-106" points="205.43 222.11 208.94 247.57 222.4 227.09 205.43 222.11"/>
              <polygon class="cls-203" points="189.04 117.64 198.99 184.95 224.16 158.02 189.04 117.64"/>
              <polygon class="cls-104" points="207.19 340.34 198.99 358.48 224.16 330.97 207.19 340.34"/>
              <polygon class="cls-223" points="198.99 358.48 218.89 412.33 224.16 330.97 198.99 358.48"/>
              <polygon class="cls-58" points="210.7 309.32 197.24 316.34 224.16 330.97 210.7 309.32"/>
              <polygon class="cls-20" points="197.24 316.34 197.82 334.48 224.16 330.97 197.24 316.34"/>
              <polygon class="cls-92" points="197.82 334.48 207.19 340.34 224.16 330.97 197.82 334.48"/>
              <polygon class="cls-187" points="200.16 422.86 201.33 459.73 224.16 460.32 200.16 422.86"/>
              <polygon class="cls-15" points="218.89 412.33 200.16 422.86 224.16 460.32 218.89 412.33"/>
              <polygon class="cls-98" points="213.62 264.84 215.09 276.54 225.92 267.18 213.62 264.84"/>
              <polygon class="cls-154" points="220.06 254.89 213.62 264.84 225.92 267.18 220.06 254.89"/>
              <polygon class="cls-153" points="185.53 86.04 189.04 117.64 228.26 93.94 185.53 86.04"/>
              <polygon class="cls-131" points="196.65 70.23 185.53 86.04 228.26 93.94 196.65 70.23"/>
              <polygon class="cls-214" points="189.04 117.64 224.16 158.02 229.43 113.25 189.04 117.64"/>
              <polygon class="cls-170" points="228.26 93.94 189.04 117.64 229.43 113.25 228.26 93.94"/>
              <polygon class="cls-109" points="208.94 247.57 220.06 254.89 232.06 234.99 208.94 247.57"/>
              <polygon class="cls-109" points="222.4 227.09 208.94 247.57 232.06 234.99 222.4 227.09"/>
              <polygon class="cls-70" points="224.16 158.02 198.99 184.95 234.11 173.83 224.16 158.02"/>
              <polygon class="cls-217" points="219.48 55.02 196.65 70.23 237.04 81.94 219.48 55.02"/>
              <polygon class="cls-122" points="196.65 70.23 228.26 93.94 237.04 81.94 196.65 70.23"/>
              <polygon class="cls-106" points="234.11 173.83 198.99 184.95 237.62 206.6 234.11 173.83"/>
              <polygon class="cls-157" points="222.4 227.09 232.06 234.99 237.62 206.6 222.4 227.09"/>
              <polygon class="cls-191" points="198.99 184.95 205.43 222.11 237.62 206.6 198.99 184.95"/>
              <polygon class="cls-100" points="205.43 222.11 222.4 227.09 237.62 206.6 205.43 222.11"/>
              <polygon class="cls-183" points="210.7 309.32 224.16 330.97 237.62 290.59 210.7 309.32"/>
              <polygon class="cls-112" points="220.06 254.89 225.92 267.18 244.64 241.72 220.06 254.89"/>
              <polygon class="cls-124" points="232.06 234.99 220.06 254.89 244.64 241.72 232.06 234.99"/>
              <polygon class="cls-229" points="237.62 206.6 232.06 234.99 250.5 210.7 237.62 206.6"/>
              <polygon class="cls-200" points="232.06 234.99 244.64 241.72 250.5 210.7 232.06 234.99"/>
              <polygon class="cls-125" points="229.43 113.25 224.16 158.02 251.67 138.12 229.43 113.25"/>
              <polygon class="cls-183" points="224.16 158.02 234.11 173.83 251.67 138.12 224.16 158.02"/>
              <polygon class="cls-85" points="234.11 173.83 237.62 206.6 251.67 186.7 234.11 173.83"/>
              <polygon class="cls-19" points="237.62 206.6 250.5 210.7 251.67 186.7 237.62 206.6"/>
              <polygon class="cls-1" points="244.64 241.72 225.92 267.18 251.67 263.08 244.64 241.72"/>
              <polygon class="cls-27" points="251.67 263.08 225.92 267.18 254.59 278.3 251.67 263.08"/>
              <polygon class="cls-176" points="237.62 290.59 224.16 330.97 256.94 296.44 237.62 290.59"/>
              <polygon class="cls-13" points="254.59 278.3 237.62 290.59 256.94 296.44 254.59 278.3"/>
              <polygon class="cls-174" points="251.67 138.12 234.11 173.83 263.96 159.78 251.67 138.12"/>
              <polygon class="cls-1" points="234.11 173.83 251.67 186.7 263.96 159.78 234.11 173.83"/>
              <polygon class="cls-34" points="229.43 113.25 251.67 138.12 265.13 108.28 229.43 113.25"/>
              <polygon class="cls-115" points="228.26 93.94 229.43 113.25 265.13 108.28 228.26 93.94"/>
              <polygon class="cls-213" points="237.04 81.94 228.26 93.94 265.13 108.28 237.04 81.94"/>
              <polygon class="cls-179" points="237.04 81.94 265.13 108.28 270.4 93.06 237.04 81.94"/>
              <polygon class="cls-165" points="254.59 278.3 256.94 296.44 270.4 280.05 254.59 278.3"/>
              <polygon class="cls-75" points="251.67 138.12 263.96 159.78 272.74 123.49 251.67 138.12"/>
              <polygon class="cls-233" points="265.13 108.28 251.67 138.12 272.74 123.49 265.13 108.28"/>
              <polygon class="cls-201" points="204.26 0 219.48 55.02 273.32 18.73 204.26 0"/>
              <polygon class="cls-47" points="250.5 210.7 244.64 241.72 273.32 215.38 250.5 210.7"/>
              <polygon class="cls-137" points="251.67 186.7 250.5 210.7 273.32 215.38 251.67 186.7"/>
              <polygon class="cls-143" points="244.64 241.72 251.67 263.08 274.2 260.74 244.64 241.72"/>
              <polygon class="cls-139" points="273.32 215.38 244.64 241.72 274.2 260.74 273.32 215.38"/>
              <polygon class="cls-38" points="251.67 263.08 254.59 278.3 274.2 260.74 251.67 263.08"/>
              <polygon class="cls-77" points="254.59 278.3 270.4 280.05 274.2 260.74 254.59 278.3"/>
              <polygon class="cls-49" points="274.2 260.74 270.4 280.05 279.18 284.74 274.2 260.74"/>
              <polygon class="cls-65" points="237.04 81.94 270.4 93.06 286.2 70.23 237.04 81.94"/>
              <polygon class="cls-153" points="219.48 55.02 237.04 81.94 286.2 70.23 219.48 55.02"/>
              <polygon class="cls-89" points="273.32 18.73 219.48 55.02 286.2 70.23 273.32 18.73"/>
              <polygon class="cls-83" points="273.32 18.73 286.2 70.23 287.37 19.9 273.32 18.73"/>
              <polygon class="cls-48" points="204.26 0 273.32 18.73 287.37 19.9 204.26 0"/>
              <polygon class="cls-17" points="274.2 260.74 279.18 284.74 291.47 262.5 274.2 260.74"/>
              <polygon class="cls-172" points="286.2 70.23 270.4 93.06 295.56 100.08 286.2 70.23"/>
              <polygon class="cls-64" points="270.4 93.06 265.13 108.28 295.56 100.08 270.4 93.06"/>
              <polygon class="cls-175" points="265.13 108.28 272.74 123.49 295.56 100.08 265.13 108.28"/>
              <polygon class="cls-139" points="273.32 215.38 274.2 260.74 296.15 251.37 273.32 215.38"/>
              <polygon class="cls-119" points="274.2 260.74 291.47 262.5 296.15 251.37 274.2 260.74"/>
              <polygon class="cls-159" points="291.47 262.5 279.18 284.74 296.15 281.22 291.47 262.5"/>
              <polygon class="cls-45" points="272.74 123.49 263.96 159.78 298.49 192.56 272.74 123.49"/>
              <polygon class="cls-189" points="263.96 159.78 251.67 186.7 298.49 192.56 263.96 159.78"/>
              <polygon class="cls-110" points="251.67 186.7 273.32 215.38 298.49 192.56 251.67 186.7"/>
              <polygon class="cls-112" points="273.32 215.38 296.15 251.37 321.9 230.6 273.32 215.38"/>
              <polygon class="cls-60" points="298.49 192.56 273.32 215.38 321.9 230.6 298.49 192.56"/>
              <polygon class="cls-41" points="321.9 230.6 296.15 251.37 321.9 279.47 321.9 230.6"/>
              <polygon class="cls-183" points="296.15 251.37 291.47 262.5 321.9 279.47 296.15 251.37"/>
              <polygon class="cls-17" points="291.47 262.5 296.15 281.22 321.9 279.47 291.47 262.5"/>
              <polygon class="cls-211" points="287.37 19.9 286.2 70.23 324.83 67.89 287.37 19.9"/>
              <polygon class="cls-74" points="286.2 70.23 295.56 100.08 324.83 67.89 286.2 70.23"/>
              <polygon class="cls-13" points="298.49 192.56 321.9 230.6 327.75 198.7 298.49 192.56"/>
              <polygon class="cls-159" points="327.75 198.7 321.9 230.6 334.78 212.75 327.75 198.7"/>
              <polygon class="cls-51" points="324.83 67.89 295.56 100.08 335.36 95.98 324.83 67.89"/>
              <polygon class="cls-11" points="327.75 198.7 334.78 212.75 345.31 213.92 327.75 198.7"/>
              <polygon class="cls-162" points="334.78 212.75 321.9 230.6 345.31 213.92 334.78 212.75"/>
              <polygon class="cls-147" points="324.83 67.89 335.36 95.98 345.9 87.21 324.83 67.89"/>
              <polygon class="cls-130" points="287.37 19.9 324.83 67.89 345.9 87.21 287.37 19.9"/>
              <polygon class="cls-141" points="327.75 198.7 345.31 213.92 351.75 177.63 327.75 198.7"/>
              <polygon class="cls-87" points="298.49 192.56 327.75 198.7 351.75 177.63 298.49 192.56"/>
              <polygon class="cls-51" points="321.9 230.6 321.9 279.47 352.92 258.98 321.9 230.6"/>
              <polygon class="cls-181" points="335.36 95.98 295.56 100.08 355.26 123.49 335.36 95.98"/>
              <polygon class="cls-105" points="345.9 87.21 335.36 95.98 355.26 123.49 345.9 87.21"/>
              <polygon class="cls-182" points="345.31 213.92 321.9 230.6 355.26 234.4 345.31 213.92"/>
              <polygon class="cls-72" points="321.9 230.6 352.92 258.98 355.26 234.4 321.9 230.6"/>
              <polygon class="cls-28" points="295.56 100.08 272.74 123.49 355.85 134.61 295.56 100.08"/>
              <polygon class="cls-126" points="355.26 123.49 295.56 100.08 355.85 134.61 355.26 123.49"/>
              <polygon class="cls-164" points="272.74 123.49 298.49 192.56 355.85 134.61 272.74 123.49"/>
              <polygon class="cls-109" points="298.49 192.56 351.75 177.63 358.77 151.59 298.49 192.56"/>
              <polygon class="cls-202" points="355.85 134.61 298.49 192.56 358.77 151.59 355.85 134.61"/>
              <polygon class="cls-69" points="355.26 123.49 355.85 134.61 372.23 127 355.26 123.49"/>
              <polygon class="cls-63" points="355.85 134.61 358.77 151.59 372.23 127 355.85 134.61"/>
              <polygon class="cls-185" points="345.9 87.21 355.26 123.49 372.23 127 345.9 87.21"/>
              <polygon class="cls-99" points="358.77 151.59 351.75 177.63 378.09 194.6 358.77 151.59"/>
              <polygon class="cls-50" points="351.75 177.63 345.31 213.92 378.09 194.6 351.75 177.63"/>
              <polygon class="cls-144" points="378.09 194.6 345.31 213.92 378.09 204.55 378.09 194.6"/>
            </g>
          </g>
        </g>
      </g>
    </g>
  </g>
</svg>