<?xml version="1.0" encoding="UTF-8"?>
<svg xmlns="http://www.w3.org/2000/svg" width="609.97" height="316.48" xmlns:xlink="http://www.w3.org/1999/xlink" viewBox="0 0 609.97 316.48">
  <defs>
    <style>
      .cls-1 {
        fill: url(#linear-gradient-7);
      }

      .cls-1, .cls-2, .cls-3, .cls-4, .cls-5 {
        mix-blend-mode: color-dodge;
        opacity: .26;
      }

      .cls-2 {
        fill: url(#linear-gradient-6);
      }

      .cls-6 {
        opacity: .65;
      }

      .cls-6, .cls-7, .cls-8, .cls-9 {
        mix-blend-mode: multiply;
      }

      .cls-6, .cls-10 {
        fill: #e5895a;
      }

      .cls-3 {
        fill: url(#linear-gradient-8);
      }

      .cls-7 {
        fill: url(#linear-gradient-3);
      }

      .cls-7, .cls-11, .cls-8, .cls-12, .cls-13 {
        fill-rule: evenodd;
      }

      .cls-7, .cls-8, .cls-9 {
        opacity: .18;
      }

      .cls-14 {
        fill: #cc5e35;
      }

      .cls-4 {
        fill: url(#linear-gradient-9);
      }

      .cls-15 {
        isolation: isolate;
      }

      .cls-11 {
        fill: url(#linear-gradient);
      }

      .cls-16 {
        fill: #fdcd77;
      }

      .cls-17 {
        fill: #010101;
        opacity: .1;
      }

      .cls-18, .cls-12 {
        fill: #fdcba5;
      }

      .cls-8 {
        fill: url(#linear-gradient-2);
      }

      .cls-9 {
        fill: #da7346;
      }

      .cls-13 {
        fill: #cd6d42;
      }

      .cls-5 {
        fill: url(#linear-gradient-5);
      }

      .cls-19 {
        fill: url(#linear-gradient-4);
      }

      .cls-20 {
        fill: #ffedcb;
      }
    </style>
    <linearGradient id="linear-gradient" x1="308.78" y1="181.92" x2="312.62" y2="65.42" gradientUnits="userSpaceOnUse">
      <stop offset="0" stop-color="#e67943"/>
      <stop offset=".27" stop-color="#eb8b50"/>
      <stop offset=".73" stop-color="#f2a563"/>
      <stop offset="1" stop-color="#f5af6a"/>
    </linearGradient>
    <linearGradient id="linear-gradient-2" x1="277.59" y1="120.59" x2="484.46" y2="120.59" gradientUnits="userSpaceOnUse">
      <stop offset="0" stop-color="#901843"/>
      <stop offset=".13" stop-color="#9f385d"/>
      <stop offset=".56" stop-color="#d2a2b3"/>
      <stop offset=".86" stop-color="#f2e4e9"/>
      <stop offset="1" stop-color="#fff"/>
    </linearGradient>
    <linearGradient id="linear-gradient-3" x1="272.17" y1="240.13" x2="618.26" y2="240.13" xlink:href="#linear-gradient-2"/>
    <linearGradient id="linear-gradient-4" x1="336.96" y1="229.74" x2="297.14" y2="-27.7" gradientUnits="userSpaceOnUse">
      <stop offset="0" stop-color="#e67943"/>
      <stop offset="1" stop-color="#f5af6a"/>
    </linearGradient>
    <linearGradient id="linear-gradient-5" x1="14.69" y1="47.04" x2="166.57" y2="47.04" gradientUnits="userSpaceOnUse">
      <stop offset="0" stop-color="#010101"/>
      <stop offset="1" stop-color="#f89947"/>
    </linearGradient>
    <linearGradient id="linear-gradient-6" x1="26.34" y1="99.29" x2="304.28" y2="99.29" xlink:href="#linear-gradient-5"/>
    <linearGradient id="linear-gradient-7" x1="10.24" y1="133.35" x2="305.47" y2="133.35" xlink:href="#linear-gradient-5"/>
    <linearGradient id="linear-gradient-8" x1="351.61" y1="70.32" x2="497.92" y2="70.32" xlink:href="#linear-gradient-5"/>
    <linearGradient id="linear-gradient-9" x1="249.29" y1="45.32" x2="313.71" y2="45.32" xlink:href="#linear-gradient-5"/>
  </defs>
  <g class="cls-15">
    <g id="Layer_2" data-name="Layer 2">
      <g id="Layer_1-2" data-name="Layer 1">
        <g>
          <polygon class="cls-17" points="252.49 316.48 276.48 279.26 321.76 263.02 384.84 250.12 397.33 275.04 365.96 299.68 295.07 316.34 252.49 316.48"/>
          <g>
            <path class="cls-11" d="m337.64,299.55s-14.15,2.06-20.35,2.61c-6.19.57-27.18,0-27.18,0l-6.88-1-11.06-1.62,2.75-66.56,5.06-122.84,1.08-32.75.54-15.29,8.5-1.65h27.18l7.62,2.2.54,10.16,12.19,226.73Z"/>
            <path class="cls-8" d="m304.92,164.53c-9.78.5-19.91,2.25-27.33,3.82l2.41-58.2,1.08-32.74c5.01,1.84,10.86,3.37,16.76,3.57,15.73.55,18.19-.59,21.82-2,2.36-.89,5.26-3.73,5.8-6.16l4.96,92.2c-7.91-.54-17.25-.91-25.51-.48Z"/>
            <polygon class="cls-12" points="284.03 64.5 308.29 64.5 299.97 63.22 324.91 62.66 317.29 60.47 290.11 60.47 281.61 62.11 284.03 64.5"/>
            <polygon class="cls-13" points="308.29 65.62 313.19 80.72 310.74 65.62 308.29 65.62"/>
            <polygon class="cls-13" points="290.13 301.16 293.37 268.22 293.37 301.12 290.13 301.16"/>
            <path class="cls-7" d="m331.12,177.84c-7.81,1.2-18.48,2.62-30.32,3.61-8.45.7-16.71.89-23.79.86l-2.06,50.69c14.89-.02,37.4.18,38.24,1.46.3.46.9,4.24,1.53,9.75l-30.85,2.19-8.92-6.11-2.75,59.27,11.06,1.62.49-43.28h32.27c1.38,18.08,1.81,40.25-2.82,41.66-4.82,1.5-19.51,1.68-29.93,1.62l6.88,1s20.99.55,27.18,0c6.19-.55,20.35-2.62,20.35-2.62l-6.54-121.71Z"/>
          </g>
          <g>
            <path class="cls-18" d="m609.97,11.8s-13.69,1.11-35.74,2.87c-91.57,7.36-326.77,26.27-329.15,26.11C242.17,40.57.01,29.59.01,29.59l21.05-7.68s52.09-5.81,117.88-11.34c21.61-1.83,44.73-3.62,67.93-5.13,35.18-2.35,70.6-4.14,101.52-4.66C355.04.06,403.35-.06,444.06.02c58.18.12,100.8.76,100.8.76l65.11,11.02Z"/>
            <path class="cls-20" d="m206.88,5.43l-34.82,14.09-61.64,3.9,28.53-12.85c21.61-1.83,44.73-3.62,67.93-5.13Z"/>
            <path class="cls-20" d="m609.97,11.8s-13.69,1.11-35.74,2.87c-.08,0-76.49-5.53-76.49-5.53L444.1.02c58.14.12,100.76.76,100.76.76l65.11,11.02Z"/>
            <path class="cls-14" d="m0,29.57l13.12,116.62,8.97,30.92,44.98,7.26s193.48-28.09,249.73-29.34c56.26-1.25,167.02,1.64,167.02,1.64l14.17-10.02-6.5,10.02h65.65l26.03-8.61-116.79-53.12L0,29.57Z"/>
            <path class="cls-19" d="m609.97,11.8l-12.85,65.23-1.55,7.88-3.78,19.22-1.11,5.69-7.52,38.24s-83.57-1.91-162.45-1.95c-29.49,0-58.3.24-81.86.96-21.53.64-51.97,2.83-85.52,5.77-58.66,5.09-126.83,12.42-173.87,17.67-.16.04-.28.08-.4.08-34.03,3.78-56.95,6.53-56.95,6.53l-.32-2.19s-2.55-16.91-2.55-16.91l-5.73-38.4S.01,29.59.01,29.59c10.03-1.03,19.94-2.07,29.73-3.02,14.01-1.39,27.82-2.67,41.39-3.9,63.16-5.65,121.66-9.55,175.06-12.18,16.71-.8,32.95-1.51,48.63-2.07,3.7-.16,7.4-.28,11.02-.4,4.22-.16,8.36-.28,12.5-.4,7.12-.24,14.05-.44,20.89-.6,4.82-.12,9.59-.24,14.29-.36,55.16-1.19,102.28-.99,140.52-.2,10.74.2,20.77.48,30.09.8,10.47.32,20.06.68,28.69,1.03,7.04.32,13.45.64,19.22.96,24.87,1.35,37.93,2.55,37.93,2.55Z"/>
            <path class="cls-9" d="m597.12,77.03l-1.55,7.88c-22.33,6.73-65.54,18.27-101.92,19.82-51.62,2.19-163.64-9.55-244.91-1.03-69.84,7.32-195.48,44.09-229.5,54.32l-5.73-38.4c3.38,5.93,9.11,14.33,14.41,14.13,8.2-.28,166.27-47.36,268.98-43.06,102.67,4.3,182.07,11.98,240.65,1.87,28.61-4.93,47.64-10.82,59.57-15.52Z"/>
            <path class="cls-9" d="m591.78,104.13l-1.11,5.69c-17.95,6.21-52.33,16.12-93.6,18.07-61.01,2.91-159.38-5.53-213.67,0-47.52,4.89-173.27,35.14-203.96,42.62-.16.04-.28.08-.4.08-34.03,3.78-56.95,6.53-56.95,6.53l-.32-2.19c33.59-10.07,176.89-51.46,270.81-54.84,106.97-3.9,173.67,7.68,228.23.88,33.79-4.18,57.66-11.7,70.96-16.83Z"/>
            <path class="cls-9" d="m494.88,136.8c-3.02.48-36.77,5.69-74.18,9.31-29.49,0-58.3.24-81.86.96-21.53.64-51.97,2.83-85.52,5.77,25.11-6.25,57.19-12.69,86.16-14.05,58.78-2.71,107.05,2.07,131.33,0,19.26-1.59,23.24-1.95,24.08-1.99Z"/>
            <path class="cls-9" d="m565.17,55.8s-65.36,16.05-92.92,19.98c-27.56,3.93-68.67,5.95-68.67,5.95,0,0,37.79,8.65,91.52,0s70.08-25.93,70.08-25.93Z"/>
            <path class="cls-9" d="m143.68,92.83s-54.52,15-73.07,16.2c-18.58,1.19-27.22,0-27.22,0,1.31-.88,21.93-14.41,43.14-16.2,21.89-1.83,57.15,0,57.15,0Z"/>
            <path class="cls-9" d="m71.93,77.94s-2.94,3.18-7.72,6.37c-5.21,3.46-12.58,6.88-20.81,6.37-15.92-.99-21.01-2.31-21.01-2.31,0,0,5.09-5.73,16.4-8.2,11.26-2.43,33.15-2.23,33.15-2.23Z"/>
            <path class="cls-9" d="m294.82,8.42c-2.07,1.31-70.92,44.73-151.15,42.42-59.81-1.71-97.94-16.52-113.94-24.28,14.01-1.39,27.82-2.67,41.39-3.9,19.86,10.35,52.61,24.28,82.18,22.45,29.61-1.83,68.57-20.97,92.88-34.62,16.71-.8,32.95-1.51,48.63-2.07Z"/>
            <path class="cls-9" d="m572.04,9.25c-11.58,11.62-36.1,31.4-76.97,42.7-60.33,16.67-184.38,21.81-230.58,4.34-28.53-10.78,8.68-32.91,41.35-48.27,4.22-.16,8.36-.28,12.5-.4-26.11,11.9-51.89,26.42-46.96,35.58,9.51,17.75,93.72,23.92,180.56,8.76,54.44-9.51,85.4-29.81,100.88-43.66,7.04.32,13.45.64,19.22.96Z"/>
            <path class="cls-9" d="m524.13,7.26c-8.79,5.21-22.13,11.78-41.55,18.23-42.34,14.13-156.64,29.69-174.15,10.43-8.83-9.67,9.95-20.5,30.8-28.89,4.82-.12,9.59-.24,14.29-.36-22.56,11.02-40.51,25.55,3.78,31.84,51.18,7.28,106.3-16.08,136.74-32.04,10.74.2,20.77.48,30.09.8Z"/>
            <polygon class="cls-10" points="353.52 6.67 407.54 14.43 444.56 10.55 453.78 5.91 400.94 5.43 353.52 6.67"/>
            <path class="cls-6" d="m71.93,77.94s-2.94,3.18-7.72,6.37c-3.94-.2-7.96-.24-11.5.04-12.85.92-30.32,4.02-30.32,4.02,0,0,5.09-5.73,16.4-8.2,11.26-2.43,33.15-2.23,33.15-2.23Z"/>
            <path class="cls-6" d="m143.68,92.83s-37.93,2.83-55.16,5.57c-16.71,2.67-43.42,10.15-45.05,10.59,1.23-.84,21.85-14.37,43.06-16.16,21.89-1.83,57.15,0,57.15,0Z"/>
            <path class="cls-5" d="m68.64,40.54s43.97,16.85,87.75,13.31c43.78-3.54,66.62-14.11,66.62-14.11,0,0-36.45,9.59-77.19,11.19-40.73,1.6-77.18-10.39-77.18-10.39Z"/>
            <path class="cls-2" d="m125.06,110.89s79.97-19.71,148.94-18.88c68.98.83,133.55,4.02,133.55,4.02,0,0-84.91-11.18-144.6-7.67-59.69,3.51-137.89,22.52-137.89,22.52Z"/>
            <path class="cls-1" d="m115.1,149.63s85.06-25.01,146.96-30.55c61.9-5.54,153.1,2.05,153.1,2.05,0,0-93.76-2.94-155.27,1.36-61.51,4.31-144.8,27.13-144.8,27.13Z"/>
            <path class="cls-3" d="m403.58,81.74s38.74-1.51,85.91-8.95c47.17-7.44,62.8-13.88,62.8-13.88,0,0-110.67,23.3-148.71,22.83Z"/>
            <path class="cls-4" d="m277.87,30.49s-6.91,7.21,0,14.43c6.91,7.22,59.78,15.25,59.78,15.25,0,0-55.27-3.57-62.78-13.12-7.51-9.55,3-16.55,3-16.55Z"/>
            <polygon class="cls-14" points="552.28 37.97 537.53 48.17 524.13 54.34 543.51 48.17 552.28 37.97"/>
            <polygon class="cls-14" points="555.02 47.04 565.17 28.44 565.17 37.4 555.02 47.04"/>
            <polygon class="cls-14" points="223.01 61.13 218.87 53.55 229.25 47.04 233.08 50.93 235.36 60.05 223.01 61.13"/>
            <polygon class="cls-16" points="221.79 58.91 230.78 57.17 233.08 50.93 235.36 60.05 223.01 61.13 221.79 58.91"/>
            <polygon class="cls-14" points="47.15 53.55 52.03 58.99 57.33 55.01 47.15 53.55"/>
            <path class="cls-14" d="m597.12,77.03s-36.34,1.12-39.11.91c-2.77-.21-57.79,10.43-57.79,10.43l59.88-5.22,36.25-2.21.77-3.92Z"/>
          </g>
        </g>
      </g>
    </g>
  </g>
</svg>